<svg xmlns="http://www.w3.org/2000/svg" xmlns:xlink="http://www.w3.org/1999/xlink" viewBox="0 0 70 70" version="1.1" x="0px" y="0px">
<g stroke="none" stroke-width="1" fill="none" fill-rule="evenodd">
<g fill="#fff" fill-rule="nonzero">
<path d="M35.822,38.009 C39.914,31.087 42.252,21.354 36.544,14.796 C34.8335702,12.7979221 32.6031067,11.3126771 30.1,10.505 C31.6835896,8.29096381 32.359839,5.55483731 31.99,2.858 C31.919358,2.36556209 31.497479,1.99993367 31,2 C24.441,2 21.467,5.328 20.119,8.324 C19.056,4.608 16.775,0 12,0 C11.4477153,-3.38176876e-17 11,0.44771525 11,1 C11,1.55228475 11.4477153,2 12,2 C16.387,2 18.1,7.868 18.7,11.064 C16.8940582,10.3188567 14.9531454,9.95655303 13,10 C9.28245942,10.1762003 5.81401038,11.9206005 3.456,14.8 C-2.252,21.358 0.086,31.091 4.178,38.013 C5.34660029,40.1599598 6.99716978,42.006667 9,43.408 L9,50.586 L7.707,49.293 C7.31462111,48.9140278 6.69091522,48.9194476 6.30518142,49.3051814 C5.91944763,49.6909152 5.91402779,50.3146211 6.293,50.707 L9.293,53.707 C9.57842919,53.9919012 10.007058,54.0774692 10.38,53.924 C10.4886296,53.8750139 10.5878048,53.8073175 10.673,53.724 C10.682,53.715 10.695,53.712 10.704,53.703 L13.704,50.703 C14.0829722,50.3106211 14.0775524,49.6869152 13.6918186,49.3011814 C13.3060848,48.9154476 12.6823789,48.9100278 12.29,49.289 L11,50.586 L11,44.386 C12.0990121,44.7719692 13.2551841,44.9700736 14.42,44.972 C15.5497115,44.9743827 16.6724293,44.7947479 17.745,44.44 C18.5509844,44.1754376 19.311527,43.7885896 20,43.293 C20.6883586,43.7876875 21.4485338,44.1738458 22.254,44.438 C24.4480555,45.1563927 26.8166116,45.1391885 29,44.389 L29,50.589 L27.707,49.296 C27.3146211,48.9170278 26.6909152,48.9224476 26.3051814,49.3081814 C25.9194476,49.6939152 25.9140278,50.3176211 26.293,50.71 L29.293,53.71 C29.5784292,53.9949012 30.007058,54.0804692 30.38,53.927 C30.4886296,53.8780139 30.5878048,53.8103175 30.673,53.727 C30.682,53.718 30.695,53.715 30.704,53.706 L33.704,50.706 C34.0829722,50.3136211 34.0775524,49.6899152 33.6918186,49.3041814 C33.3060848,48.9184476 32.6823789,48.9130278 32.29,49.292 L31,50.586 L31,43.408 C33.0032979,42.00553 34.6539041,40.1574126 35.822,38.009 Z M30.092,4.025 C30.1496453,6.23323683 29.3860495,8.38434641 27.949,10.062 C27.632,10.031 27.315,10 27,10 C25.0291889,9.9543182 23.0708028,10.323645 21.252,11.084 C21.824,8.554 23.727,4.388 30.092,4.025 Z M22.892,42.542 C22.0733938,42.2800474 21.3204706,41.8456162 20.684,41.268 C20.3001637,40.9110446 19.7058363,40.9110446 19.322,41.268 C18.6855294,41.8456162 17.9326062,42.2800474 17.114,42.542 C15.1110946,43.2092546 12.9309186,43.1022258 11.003,42.242 L11.003,39 C11.003,38.4477153 10.5552847,38 10.003,38 C9.45071525,38 9.003,38.4477153 9.003,39 L9.003,40.9 C7.77005015,39.7685769 6.72379313,38.4492806 5.903,36.991 C2.167,30.668 -0.041,21.863 4.969,16.109 C6.95816807,13.6821876 9.86809555,12.1933454 13,12 C17.449,12 19.283,13.7 19.293,13.707 C19.303,13.714 19.305,13.714 19.311,13.719 C19.3914352,13.793188 19.4832735,13.8539633 19.583,13.899 C19.597,13.905 19.608,13.918 19.622,13.923 C19.7417551,13.9731296 19.870178,13.9992898 20,14 L20.042,14 C20.1203687,13.9915204 20.1973284,13.9730367 20.271,13.945 C20.3078077,13.9384586 20.3442027,13.9297772 20.38,13.919 C20.4627457,13.8812088 20.5398204,13.8320695 20.609,13.773 C20.640161,13.7558983 20.6702199,13.736861 20.699,13.716 C20.717,13.7 22.551,12 27,12 C30.1334832,12.1925073 33.0450865,13.6818278 35.035,16.11 C40.045,21.864 37.835,30.669 34.101,36.992 C33.2798157,38.4499972 32.233222,39.768955 31,40.9 L31,39 C31,38.4477153 30.5522847,38 30,38 C29.4477153,38 29,38.4477153 29,39 L29,42.238 C27.0725646,43.0994424 24.892415,43.2078969 22.889,42.542 L22.892,42.542 Z"/>
<path d="M17.782,15.072 C16.3216621,14.2690753 14.6633498,13.8973249 13,14 C12.4477153,14 12,14.4477153 12,15 C12,15.5522847 12.4477153,16 13,16 C14.2757345,15.906545 15.5526058,16.1656554 16.691,16.749 C16.9905672,16.9438884 17.3713504,16.9641555 17.6899123,16.8021669 C18.0084742,16.6401783 18.2164176,16.3205439 18.2354123,15.9636669 C18.254407,15.6067899 18.0815672,15.2668884 17.782,15.072 Z"/>
<path d="M7.981,18.736 C8.2250795,18.4679145 8.3049392,18.0887189 8.18971529,17.744963 C8.07449138,17.4012071 7.78223417,17.1467418 7.42589391,17.0799116 C7.06955365,17.0130814 6.70495254,17.1443557 6.473,17.423 C2.162,22.375 4.24,30.253 7.622,35.974 C7.79767688,36.2935829 8.13339791,36.4921906 8.49808348,36.4922785 C8.86276904,36.4923663 9.19858573,36.2939203 9.37441656,35.9744222 C9.55024739,35.654924 9.53820836,35.265041 9.343,34.957 C6.316,29.835 4.369,22.885 7.981,18.736 Z"/><path d="M20,46 C19.4477153,46 19,46.4477153 19,47 L19,56.586 L17.707,55.293 C17.3146211,54.9140278 16.6909152,54.9194476 16.3051814,55.3051814 C15.9194476,55.6909152 15.9140278,56.3146211 16.293,56.707 L19.293,59.707 C19.5784292,59.9919012 20.007058,60.0774692 20.38,59.924 C20.4886296,59.8750139 20.5878048,59.8073175 20.673,59.724 C20.682,59.715 20.695,59.712 20.704,59.703 L23.704,56.703 C24.0829722,56.3106211 24.0775524,55.6869152 23.6918186,55.3011814 C23.3060848,54.9154476 22.6823789,54.9100278 22.29,55.289 L21,56.586 L21,47 C21,46.4477153 20.5522847,46 20,46 Z"/>
</g>
</g>
</svg>