<svg xmlns="http://www.w3.org/2000/svg" xmlns:sodipodi="http://sodipodi.sourceforge.net/DTD/sodipodi-0.dtd" viewBox="0 0 150 150" x="0px" y="0px" fill='#fff'>
<path d="m 62.075625,5 c -3.767073,0.885989 -7.717154,2.9837238 -10.009766,5.419922 -2.293112,2.436729 -3.936446,5.638495 -4.6875,9.648437 C 25.374613,10.6895 3.968353,26.284476 5.0385154,49.410156 6.10886,72.539775 24.382317,104.98878 49.638125,91.708984 75.208305,105.35878 91.557529,73.430389 94.645937,53.085938 97.734419,32.741003 80.324283,9.5502244 53.093203,20.414062 c 0.642688,-2.837955 1.647606,-4.736324 3.320312,-6.529296 1.672706,-1.792971 4.504308,-3.244054 7.859376,-4.4570316 C 64.093699,7.3067644 63.249417,5.81999 62.075625,5 Z m -18.591797,36.124023 12.267578,0 0,18.763672 6.867188,0 -12.980469,14.988282 -13.019531,-14.988282 6.865234,0 z" color="#c22d2d"/>
</svg>