<svg xmlns="http://www.w3.org/2000/svg" xmlns:xlink="http://www.w3.org/1999/xlink" version="1.1" x="0px" y="0px" viewBox="0 0 35 35" style="enable-background:new 0 0 24 24;" xml:space="preserve">
<g>
<path d="M23.415,20.585l-5.074-5.073C19.389,13.932,20,12.038,20,10c0-1.513-0.346-2.941-0.946-4.226L16.73,8.097   C16.902,8.703,17,9.34,17,10c0,3.859-3.141,7-7,7c-3.86,0-7-3.141-7-7c0-3.86,3.14-7,7-7c1.719,0,3.293,0.626,4.514,1.658   l2.124-2.124C14.871,0.962,12.551,0,10,0C4.477,0,0,4.476,0,10c0,5.523,4.477,10,10,10c2.038,0,3.932-0.611,5.512-1.659   l5.074,5.073c0.78,0.779,2.047,0.779,2.829-0.001C24.195,22.632,24.195,21.365,23.415,20.585z" fill='#FFF'/>
<path d="M13,7.586l-2.293-2.293c-0.287-0.286-0.716-0.371-1.09-0.217C9.244,5.231,9,5.596,9,6v5.586l-1.293-1.293   c-0.391-0.391-1.023-0.391-1.414,0l-1.88,1.88c0.254,0.649,0.616,1.243,1.067,1.761L7,12.414l2.293,2.293   c0.286,0.286,0.716,0.373,1.09,0.217C10.756,14.77,11,14.404,11,14V8.414l1.293,1.293c0.391,0.391,1.023,0.391,1.414,0l6.5-6.5   L22,5V0h-5l1.793,1.793L13,7.586z" fill='#FFF'/>
</g>
</svg>