<svg xmlns="http://www.w3.org/2000/svg" data-name="Layer 1" viewBox="0 0 55 55" x="0px" y="0px"><path d="M14.74483,19.47556H11.25417V20.486h3.49066Z" transform="translate(-0.00002 0.00002)" stroke="#FFF" fill="#FFF"/><polygon points="24.023 21.956 24.941 21.956 24.941 20.486 26.411 20.486 26.411 19.476 25.033 19.476 25.033 18.006 24.023 18.006 24.023 19.476 22.553 19.476 22.553 20.486 24.023 20.486 24.023 21.956" stroke="#FFF" fill="#FFF"/><path d="M26.77846,10.014H23.01223v2.29651h-8.2674V10.014H10.97859v2.29651H8.03908V27.743H29.718V12.31052H26.77846Zm1.65344,3.58252V26.45688H9.32509V13.59653Z" transform="translate(-0.00002 0.00002)" stroke="#FFF" fill="#FFF"/><path d="M18.87941,0A18.87848,18.87848,0,1,0,37.757,18.87937,18.90067,18.90067,0,0,0,18.87941,0Zm0,36.49408A17.61475,17.61475,0,1,1,36.49416,18.87937,17.63492,17.63492,0,0,1,18.87941,36.49405Z" transform="translate(-0.00002 0.00002)" stroke="#FFF" fill="#FFF"/></svg>
