<svg xmlns="http://www.w3.org/2000/svg" xmlns:xlink="http://www.w3.org/1999/xlink" version="1.1" x="0px" y="0px" viewBox="0 0 55 55" enable-background="new 0 0 32 32" xml:space="preserve">
<g display="none">
<rect x="-86" y="-45.333" display="inline" fill="#FFF" width="408.08" height="200.574"/></g>
<g><path d="M19.18,9.739c-1.768,0-3.206,1.455-3.206,3.244c0,1.788,1.438,3.243,3.206,3.243s3.206-1.455,3.206-3.243   C22.386,11.194,20.947,9.739,19.18,9.739z M19.18,15.227c-1.217,0-2.206-1.006-2.206-2.243s0.989-2.244,2.206-2.244   s2.206,1.007,2.206,2.244S20.396,15.227,19.18,15.227z" fill="#fff" fill-opacity="1" stroke="none"/>
<path d="M19.18,6.843c-3.344,0-6.063,2.755-6.063,6.141s2.72,6.141,6.063,6.141s6.063-2.755,6.063-6.141S22.523,6.843,19.18,6.843z    M19.18,18.124c-2.792,0-5.063-2.306-5.063-5.141s2.271-5.141,5.063-5.141s5.063,2.306,5.063,5.141S21.972,18.124,19.18,18.124z" fill="#fff" fill-opacity="1" stroke="none"/>
<path d="M27.392,8.523l2.49-3.086l-3.25-3.297l-3.186,2.643c-0.499-0.243-1.016-0.438-1.54-0.58l-0.416-4.22h-4.621l-0.416,4.22   c-0.524,0.143-1.04,0.337-1.539,0.58l-3.187-2.643l-3.25,3.297l2.49,3.086c-0.31,0.555-0.56,1.138-0.747,1.739l-3.878,0.394v4.654   l3.885,0.394c0.188,0.604,0.437,1.187,0.742,1.736l-2.492,3.089l3.25,3.296l3.186-2.643c0.497,0.242,1.013,0.437,1.54,0.581   l0.416,4.219h4.621l0.416-4.219c0.527-0.145,1.043-0.339,1.54-0.581l3.186,2.643l3.25-3.296L27.39,17.44   c0.306-0.549,0.555-1.131,0.743-1.736l3.884-0.394v-4.654l-3.878-0.393C27.952,9.663,27.702,9.08,27.392,8.523z M31.017,14.406   l-3.662,0.371l-0.09,0.332c-0.203,0.75-0.509,1.462-0.907,2.116l-0.184,0.301l2.37,2.937l-1.98,2.007l-2.99-2.481l-0.296,0.158   c-0.62,0.331-1.274,0.577-1.945,0.73l-0.351,0.08l-0.397,4.025h-2.809l-0.397-4.025l-0.351-0.08   c-0.671-0.153-1.325-0.399-1.945-0.73l-0.296-0.158l-2.99,2.481l-1.98-2.007l2.369-2.937l-0.183-0.3   c-0.398-0.655-0.703-1.368-0.906-2.117l-0.09-0.332l-3.663-0.371v-2.846l3.658-0.371l0.089-0.333c0.2-0.741,0.506-1.454,0.91-2.119   l0.184-0.3L9.815,5.504l1.98-2.008l2.99,2.48l0.297-0.157c0.624-0.333,1.278-0.578,1.943-0.729l0.352-0.08l0.397-4.026h2.809   l0.397,4.026l0.352,0.08c0.666,0.151,1.32,0.397,1.944,0.729l0.297,0.157l2.989-2.48l1.98,2.008l-2.368,2.934l0.184,0.3   c0.406,0.667,0.712,1.38,0.909,2.118l0.09,0.334l3.658,0.371V14.406z" fill="#fff" fill-opacity="1" stroke="none"/>
<polygon points="1.752,30.249 28.103,30.249 28.103,32 32,29.75 28.103,27.5 28.103,29.249 2.752,29.249 2.752,3.897 4.5,3.897    2.25,0 0,3.897 1.752,3.897  " fill="#fff" fill-opacity="1" stroke="none"/>
</g>
<g display="none" fill="#fff" fill-opacity="1" stroke="none">
<path display="inline" d="M19.18,16.227c-1.768,0-3.206-1.455-3.206-3.243c0-1.789,1.438-3.244,3.206-3.244   s3.206,1.455,3.206,3.244C22.386,14.771,20.947,16.227,19.18,16.227z" fill="#fff" fill-opacity="1" stroke="none"/>
<path display="inline" d="M21.49,25.982h-4.621l-0.416-4.219c-0.527-0.145-1.043-0.339-1.54-0.581l-3.186,2.643l-3.25-3.296   l2.492-3.089c-0.306-0.55-0.554-1.132-0.742-1.736l-3.885-0.394v-4.654l3.878-0.394c0.188-0.602,0.438-1.185,0.747-1.739   l-2.49-3.086l3.25-3.297l3.187,2.643c0.499-0.243,1.015-0.438,1.539-0.58l0.416-4.22h4.621l0.416,4.22   c0.524,0.143,1.041,0.337,1.54,0.58l3.186-2.643l3.25,3.297l-2.49,3.086c0.311,0.557,0.561,1.14,0.747,1.74l3.878,0.393v4.654   l-3.884,0.394c-0.188,0.605-0.438,1.188-0.743,1.736l2.492,3.089l-3.25,3.296l-3.186-2.643c-0.497,0.242-1.013,0.437-1.54,0.581   L21.49,25.982z M19.18,7.843c-2.792,0-5.063,2.306-5.063,5.141s2.271,5.141,5.063,5.141s5.063-2.306,5.063-5.141   S21.972,7.843,19.18,7.843z" fill="#fff" fill-opacity="1" stroke="none"/>
<polygon display="inline" points="28.637,30.249 1.752,30.249 1.752,3.375 2.752,3.375 2.752,29.249 28.637,29.249  " fill="#fff" fill-opacity="1" stroke="none"/>
<polygon display="inline" points="0,3.897 2.25,0 4.5,3.897  " fill="#fff" fill-opacity="1" stroke="none"/>
<polygon display="inline" points="28.103,27.5 32,29.75 28.103,32  " fill="#fff" fill-opacity="1" stroke="none"/>
</g>
</svg>