<?xml version="1.0" encoding="iso-8859-1"?>
<!-- Generator: Adobe Illustrator 19.0.0, SVG Export Plug-In . SVG Version: 6.00 Build 0)  -->
<svg version="1.1" id="Layer_1" xmlns="http://www.w3.org/2000/svg" xmlns:xlink="http://www.w3.org/1999/xlink" x="0px" y="0px"
	 viewBox="0 0 512 512" style="enable-background:new 0 0 512 512;" xml:space="preserve">
<g>
	<g>
		<path d="M254.909,101.234c-70.279,0-127.454,57.175-127.454,127.454c0,70.279,57.175,127.454,127.454,127.454
			s127.454-57.175,127.454-127.454C382.363,158.409,325.188,101.234,254.909,101.234z M254.909,337.935
			c-60.238,0-109.247-49.009-109.247-109.247c0-60.238,49.009-109.247,109.247-109.247c60.238,0,109.247,49.009,109.247,109.247
			S315.146,337.935,254.909,337.935z"/>
	</g>
</g>
<g>
	<g>
		<path d="M262.319,223.398L216.8,159.671c-2.929-4.098-8.619-5.045-12.7-2.12c-4.094,2.925-5.041,8.61-2.12,12.7l45.519,63.727
			c1.778,2.489,4.579,3.814,7.419,3.814c1.831,0,3.681-0.551,5.281-1.694C264.293,233.174,265.24,227.488,262.319,223.398z"/>
	</g>
</g>
<g>
	<g>
		<path d="M189.315,351.502c-4.178-2.801-9.837-1.663-12.625,2.516c-16.109,24.133-43.021,38.54-71.995,38.54
			c-47.689,0-86.487-38.798-86.487-86.487c0-47.689,38.798-86.487,86.487-86.487c5.028,0,9.104-4.076,9.104-9.104
			c0-5.028-4.076-9.104-9.104-9.104C46.964,201.377,0,248.341,0,306.071c0,57.73,46.964,104.695,104.695,104.695
			c35.073,0,67.648-17.434,87.136-46.64C194.622,359.943,193.498,354.289,189.315,351.502z"/>
	</g>
</g>
<g>
	<g>
		<path d="M407.305,201.377c-5.028,0-9.104,4.076-9.104,9.104c0,5.027,4.076,9.104,9.104,9.104
			c47.689,0,86.487,38.798,86.487,86.487c0,47.689-38.798,86.487-86.487,86.487c-28.974,0-55.886-14.407-71.995-38.54
			c-2.787-4.183-8.455-5.326-12.625-2.516c-4.183,2.787-5.308,8.442-2.516,12.625c19.488,29.205,52.063,46.64,87.136,46.64
			c57.731,0,104.695-46.964,104.695-104.695C512,248.341,465.036,201.377,407.305,201.377z"/>
	</g>
</g>
<g>
	<g>
		<path d="M107.424,305.16c-3.005-4.014-8.704-4.841-12.745-1.818l-36.416,27.312c-4.023,3.014-4.836,8.722-1.818,12.745
			c1.787,2.383,4.521,3.641,7.29,3.641c1.898,0,3.814-0.591,5.454-1.823l36.416-27.312
			C109.629,314.891,110.442,309.183,107.424,305.16z"/>
	</g>
</g>
<g>
	<g>
		<path d="M444.268,268.745c-3.01-4.019-8.699-4.836-12.745-1.818l-36.416,27.312c-4.023,3.014-4.836,8.722-1.818,12.745
			c1.787,2.383,4.521,3.641,7.29,3.641c1.898,0,3.814-0.591,5.454-1.823l36.416-27.312
			C446.473,278.475,447.286,272.767,444.268,268.745z"/>
	</g>
</g>
<g>
</g>
<g>
</g>
<g>
</g>
<g>
</g>
<g>
</g>
<g>
</g>
<g>
</g>
<g>
</g>
<g>
</g>
<g>
</g>
<g>
</g>
<g>
</g>
<g>
</g>
<g>
</g>
<g>
</g>
</svg>
