<svg xmlns="http://www.w3.org/2000/svg" xmlns:xlink="http://www.w3.org/1999/xlink" version="1.1" x="0px" y="0px" viewBox="0 0 85 85" enable-background="new 0 0 57.245 58.715" xml:space="preserve"><g><g><path d="M42.297,56.298h-0.096V34.631c0-1.104-0.734-2-1.643-2h-7.803c-0.906,0-1.643,0.896-1.643,2v21.667h-3.736V24.631    c0-1.104-0.736-2-1.643-2h-7.803c-0.907,0-1.643,0.896-1.643,2v31.667h-3.737V14.631c0-1.104-0.734-2-1.643-2H3.106    c-0.906,0-1.643,0.896-1.643,2v41.667H1.368C0.612,56.298,0,56.839,0,57.507c0,0.666,0.612,1.207,1.368,1.207h40.929    c0.756,0,1.369-0.541,1.369-1.207C43.667,56.839,43.053,56.298,42.297,56.298z M56.661,29.365L44.678,17.296    c2.969-4.3,2.545-10.236-1.283-14.064c-4.311-4.309-11.293-4.309-15.604,0c-4.309,4.311-4.309,11.295,0,15.604    c3.828,3.828,9.764,4.254,14.064,1.281l11.986,12.068c0.777,0.779,2.041,0.781,2.818,0C57.44,31.408,57.44,30.144,56.661,29.365z     M41.28,16.72c-3.145,3.135-8.229,3.135-11.373,0c-3.134-3.145-3.134-8.227,0-11.372c3.145-3.134,8.227-3.134,11.371,0    C44.415,8.494,44.415,13.575,41.28,16.72z" fill="#fff" fill-opacity="1" stroke="none"/>
</g></g>
</svg>