<?xml version="1.0" encoding="UTF-8" standalone="no"?>
<svg
   xmlns:dc="http://purl.org/dc/elements/1.1/"
   xmlns:cc="http://creativecommons.org/ns#"
   xmlns:rdf="http://www.w3.org/1999/02/22-rdf-syntax-ns#"
   xmlns:svg="http://www.w3.org/2000/svg"
   xmlns="http://www.w3.org/2000/svg"
   xmlns:sodipodi="http://sodipodi.sourceforge.net/DTD/sodipodi-0.dtd"
   xmlns:inkscape="http://www.inkscape.org/namespaces/inkscape"
   version="1.0"
   width="3606.000000pt"
   height="1176.000000pt"
   viewBox="0 0 3606.000000 1176.000000"
   preserveAspectRatio="xMidYMid meet"
   id="svg3953"
   sodipodi:docname="SR_logo with words.svg"
   inkscape:version="0.92.4 (5da689c313, 2019-01-14)">
  <defs
     id="defs3957" />
  <sodipodi:namedview
     pagecolor="#ffffff"
     bordercolor="#666666"
     borderopacity="1"
     objecttolerance="10"
     gridtolerance="10"
     guidetolerance="10"
     inkscape:pageopacity="0"
     inkscape:pageshadow="2"
     inkscape:window-width="1366"
     inkscape:window-height="705"
     id="namedview3955"
     showgrid="false"
     inkscape:zoom="0.25187188"
     inkscape:cx="2130.0392"
     inkscape:cy="1228.8148"
     inkscape:window-x="-8"
     inkscape:window-y="-8"
     inkscape:window-maximized="1"
     inkscape:current-layer="svg3953" />
  <metadata
     id="metadata3877">
Created by potrace 1.13, written by Peter Selinger 2001-2015
<rdf:RDF>
  <cc:Work
     rdf:about="">
    <dc:format>image/svg+xml</dc:format>
    <dc:type
       rdf:resource="http://purl.org/dc/dcmitype/StillImage" />
  </cc:Work>
</rdf:RDF>
</metadata>
  <g
     transform="translate(0.000000,1176.000000) scale(0.100000,-0.100000)"
     id="g3951"
     stroke="none"
     fill="#000000">
    <path
       d="M34205 11749 c-55 -4 -422 -12 -815 -18 -393 -6 -787 -15 -875 -21 -159 -10 -786 -23 -1670 -36 -435 -6 -479 -5 -820 20 -250 19 -502 30 -825 36 -651 13 -1905 13 -1953 -1 -84 -23 -154 -128 -145 -218 4 -39 34 -90 208 -356 525 -803 776 -1150 1076 -1485 105 -118 123 -145 108 -159 -5 -5 -124 -32 -264 -60 -140 -28 -329 -67 -420 -86 -532 -111 -1107 -185 -1775 -227 -269 -17 -1353 -17 -1665 0 -677 37 -1277 92 -1985 182 -334 43 -684 82 -1340 150 -1340 139 -2437 265 -3309 380 -759 101 -846 110 -1065 110 -303 0 -508 -49 -806 -194 -270 -131 -534 -311 -905 -616 -574 -474 -792 -632 -1025 -745 -153 -75 -276 -115 -475 -154 -327 -66 -499 -78 -1345 -92 -539 -10 -855 -10 -1528 1 -1209 18 -1564 8 -3177 -95 -382 -24 -859 -54 -1060 -65 -472 -26 -527 -31 -1205 -100 -214 -22 -498 -49 -630 -60 -132 -12 -305 -30 -385 -41 -295 -41 -788 -144 -950 -198 -47 -16 -139 -46 -205 -66 -377 -116 -831 -315 -1145 -502 -664 -395 -1266 -984 -1727 -1688 -64 -97 -111 -185 -99 -185 2 0 82 96 179 213 185 224 529 575 737 753 659 561 1432 953 2315 1173 468 117 1080 205 2010 290 451 42 1492 106 2590 161 336 17 691 39 790 50 172 19 265 20 2090 23 1051 2 1926 7 1945 10 19 3 89 8 155 12 148 8 426 32 445 39 8 3 65 12 125 21 153 21 483 104 560 141 17 7 50 21 74 29 62 21 246 124 381 212 152 99 368 263 620 468 835 681 1178 865 1614 865 133 0 1084 -104 2846 -310 1229 -144 1406 -164 1785 -200 373 -36 557 -57 900 -105 551 -76 1232 -142 2080 -199 856 -59 1645 -40 2535 59 471 53 845 112 1475 234 198 38 421 79 495 91 178 28 218 39 235 64 28 40 14 218 -23 291 -8 17 -81 98 -162 181 -213 220 -403 452 -645 789 -132 183 -585 867 -580 876 17 26 771 17 1910 -23 734 -26 1793 -31 2180 -10 586 31 979 62 1635 127 464 46 713 67 1455 120 679 48 899 67 1125 94 l145 17 -280 7 c-154 4 -415 14 -580 22 -311 15 -786 17 -960 4z"
       id="path3879"
       style="fill:#f01e28;fill-opacity:1" />
    <path
       d="M28863 7934 c-299 -36 -580 -126 -893 -284 -572 -291 -1076 -741 -1422 -1270 -229 -350 -330 -737 -289 -1109 20 -174 22 -177 55 -74 166 517 487 1038 906 1467 524 538 1090 853 1685 938 132 19 454 16 595 -6 341 -51 778 -203 1238 -431 357 -176 612 -326 1217 -715 499 -321 719 -458 955 -592 562 -321 1147 -560 1550 -634 82 -14 370 -32 360 -22 -8 9 -124 79 -265 160 -208 120 -431 240 -885 478 -815 427 -989 527 -1525 877 -856 559 -1447 869 -2039 1067 -433 145 -860 197 -1243 150z"
       id="path3881"
       style="fill:#b9b9b9;fill-opacity:1" />
    <path
       d="M5612 7314 c-200 -32 -463 -114 -677 -212 -380 -173 -732 -436 -1009 -751 -223 -255 -320 -427 -383 -678 -25 -98 -27 -125 -28 -298 0 -283 -2 -282 108 -63 191 377 373 635 637 898 341 342 761 606 1135 715 179 52 302 68 525 69 237 0 350 -14 585 -74 253 -64 518 -168 891 -349 243 -118 408 -210 784 -434 884 -529 1297 -731 1750 -861 158 -45 340 -82 480 -98 127 -14 165 -7 165 32 0 20 -14 31 -90 70 -539 275 -1705 901 -2162 1161 -458 260 -697 388 -913 489 -404 190 -769 310 -1121 371 -165 28 -537 36 -677 13z"
       id="path3883"
       style="fill:#b9b9b9;fill-opacity:1" />
    <path
       d="M21160 6670 c-113 -5 -371 -16 -575 -25 -613 -26 -2526 -47 -5885 -65 -993 -6 -1866 -12 -1940 -15 -74 -3 -292 -10 -485 -15 -192 -6 -375 -16 -405 -22 -103 -20 -164 -110 -177 -263 -6 -80 4 -93 92 -107 49 -8 82 -20 110 -40 22 -16 67 -46 100 -67 89 -56 155 -120 295 -286 201 -237 265 -291 443 -375 95 -44 223 -87 233 -77 2 2 -21 21 -51 41 -94 62 -132 103 -259 280 -176 244 -376 537 -376 551 0 12 200 24 755 45 262 10 1993 25 4815 40 1694 10 2054 15 2645 40 803 33 1273 43 1475 32 245 -14 285 -20 735 -110 193 -39 463 -91 600 -117 138 -26 277 -55 310 -65 90 -29 1184 -231 1230 -228 32 2 41 7 43 25 3 17 -12 29 -80 68 -46 26 -138 71 -204 100 -114 50 -959 342 -1214 419 -355 107 -697 180 -1050 222 -159 19 -850 27 -1180 14z"
       id="path3885"
       style="fill:#000000;fill-opacity:1" />
    <path
       d="M1455 3980 c-209 -55 -327 -112 -447 -217 -127 -109 -207 -230 -249 -375 -29 -100 -39 -465 -15 -558 25 -98 73 -211 125 -295 64 -104 240 -310 316 -370 33 -27 85 -72 115 -100 30 -29 105 -93 165 -141 201 -162 401 -343 466 -421 179 -214 214 -295 225 -521 7 -155 -9 -248 -59 -349 -69 -137 -164 -224 -327 -301 -81 -38 -108 -45 -190 -53 -245 -22 -469 23 -600 119 -36 27 -95 82 -131 123 -56 63 -70 86 -92 154 -14 44 -28 96 -30 115 -4 30 -17 101 -33 188 -3 15 -11 22 -28 22 -50 0 -51 -8 -54 -383 l-3 -350 32 -33 c38 -39 155 -85 275 -108 44 -8 111 -23 149 -32 100 -25 467 -27 540 -2 28 9 77 19 109 22 67 7 265 81 341 128 132 81 277 231 330 343 131 277 150 360 143 612 -5 146 -5 150 -50 274 -66 182 -104 249 -217 392 -120 151 -294 311 -582 534 -161 124 -401 344 -481 440 -99 119 -138 231 -138 399 0 237 99 410 290 502 126 61 194 77 335 76 196 0 371 -52 494 -147 78 -60 114 -122 145 -247 45 -181 44 -179 67 -173 43 12 46 34 53 335 4 176 2 296 -3 312 -12 31 -88 56 -167 56 -32 0 -74 9 -106 22 -50 21 -69 22 -348 24 -259 2 -304 0 -365 -16z"
       id="path3887" />
    <path
       d="M22390 3899 c-25 -5 -86 -16 -136 -24 -192 -29 -436 -173 -509 -300 -32 -56 -75 -204 -75 -259 0 -45 29 -136 68 -212 74 -145 285 -274 529 -323 304 -62 858 -49 923 22 29 31 53 112 45 153 -3 20 -10 34 -16 32 -5 -2 -26 -26 -47 -53 -59 -78 -117 -102 -282 -116 -297 -26 -492 8 -715 124 -101 53 -210 157 -250 241 -51 105 -46 284 11 397 57 114 227 218 399 244 55 8 122 22 149 30 73 22 165 18 352 -16 239 -43 301 -74 350 -175 26 -53 28 -55 37 -33 5 13 12 70 15 126 5 117 13 108 -103 117 -33 2 -103 12 -155 20 -106 18 -511 21 -590 5z"
       id="path3889" />
    <path
       d="M33511 3895 c-315 -69 -575 -246 -757 -515 -111 -164 -226 -411 -260 -557 -8 -37 -24 -93 -34 -123 -33 -94 -69 -326 -81 -528 -9 -165 -9 -230 6 -440 14 -190 22 -257 36 -291 11 -24 19 -60 19 -80 1 -87 50 -253 143 -480 51 -127 144 -278 250 -409 59 -73 226 -211 337 -279 122 -74 360 -163 438 -163 16 0 43 -7 58 -15 42 -22 375 -21 482 1 217 44 415 124 504 203 l46 41 5 583 c3 448 8 622 21 757 l18 175 41 42 c28 29 52 45 77 48 82 14 81 13 78 48 l-3 32 -404 3 c-411 2 -421 2 -421 -33 0 -27 22 -39 84 -46 57 -5 71 -11 115 -48 90 -75 86 -42 86 -771 0 -753 11 -689 -126 -758 -81 -41 -89 -43 -217 -53 -385 -30 -647 92 -934 434 -82 98 -112 143 -154 232 -64 135 -172 422 -180 478 -4 23 -17 87 -30 142 -13 55 -24 120 -24 145 0 25 -7 63 -15 85 -22 61 -21 681 1 796 9 46 22 122 30 169 25 162 86 345 172 515 40 79 62 106 176 220 116 116 142 136 223 177 51 26 109 50 130 53 21 4 76 18 123 33 112 35 218 34 393 -2 228 -47 363 -113 487 -236 103 -103 124 -146 165 -342 38 -186 42 -198 61 -198 20 0 23 24 28 275 2 127 12 286 20 355 9 69 14 142 10 162 -5 36 -9 39 -57 52 -29 8 -100 24 -158 35 -58 12 -125 28 -149 36 -23 8 -52 15 -64 15 -12 0 -56 9 -97 20 -66 17 -106 19 -354 19 -200 0 -298 -5 -344 -14z"
       id="path3891" />
    <path
       d="M3232 3883 c18 -3 38 -19 58 -46 l30 -41 0 -305 c0 -236 4 -321 15 -369 46 -193 155 -290 393 -349 96 -25 125 -27 287 -27 197 0 244 9 413 74 124 48 158 78 217 194 l50 98 3 334 3 334 30 45 c17 25 38 49 47 55 12 6 -44 9 -173 9 -110 -1 -174 -4 -152 -9 44 -8 36 -1 82 -70 l37 -55 -5 -285 c-5 -306 -11 -349 -64 -456 -60 -123 -187 -192 -407 -223 -56 -8 -85 -6 -165 10 -135 28 -158 36 -232 85 -71 47 -102 81 -139 154 -31 61 -43 245 -35 540 l7 224 29 38 c18 22 41 38 57 41 15 2 -72 4 -193 4 -121 0 -208 -2 -193 -4z"
       id="path3893" />
    <path
       d="M18485 3740 c-33 -4 -80 -14 -105 -23 -25 -8 -72 -20 -105 -26 -155 -27 -347 -172 -413 -312 -45 -94 -49 -133 -22 -221 32 -107 52 -139 125 -206 92 -84 192 -134 350 -173 119 -29 144 -32 300 -33 148 -1 186 3 290 25 197 43 312 99 422 205 80 78 111 143 120 251 7 102 -12 170 -71 251 -91 124 -238 198 -485 246 -134 27 -268 32 -406 16z m350 -70 c125 -32 233 -90 294 -156 29 -31 64 -80 79 -108 25 -48 27 -59 27 -181 -1 -104 -4 -136 -18 -162 -26 -49 -133 -159 -182 -188 -41 -23 -234 -81 -312 -92 -39 -6 -253 31 -328 57 -150 52 -261 143 -320 264 -42 84 -52 153 -35 238 29 149 124 249 285 301 150 49 378 61 510 27z"
       id="path3895" />
    <path
       d="M5243 3728 c-4 -7 -9 -211 -11 -453 l-3 -440 -30 -37 -30 -38 148 0 c135 1 146 2 121 15 -14 8 -37 32 -50 52 -22 37 -23 47 -30 342 -4 168 -4 309 -2 313 14 23 67 -7 307 -169 368 -248 379 -255 604 -397 190 -119 278 -164 292 -150 3 3 8 195 11 427 l5 422 33 58 32 57 -157 -1 c-154 -1 -157 -1 -115 -16 72 -25 69 -14 92 -408 6 -88 13 -186 16 -217 4 -31 3 -73 0 -93 l-7 -36 -45 26 c-25 15 -291 191 -591 391 -299 200 -553 364 -563 364 -10 0 -22 -6 -27 -12z"
       id="path3897" />
    <path
       d="M12575 3734 c-185 -42 -290 -105 -316 -194 -10 -33 -9 -46 5 -85 32 -84 87 -124 327 -245 122 -62 238 -127 260 -147 37 -34 39 -38 39 -97 0 -61 -1 -62 -43 -98 -52 -43 -165 -78 -254 -78 -63 0 -208 32 -254 56 -15 7 -41 31 -58 51 l-32 38 -19 -25 c-15 -19 -20 -39 -18 -82 l1 -56 86 -14 c127 -19 410 -17 488 5 135 37 214 91 255 170 29 58 27 94 -11 160 -26 46 -50 69 -117 116 -47 33 -106 68 -132 78 -126 49 -286 136 -332 179 -43 40 -50 52 -50 85 0 47 16 63 100 103 61 29 72 31 180 31 143 0 234 -26 262 -75 31 -55 71 -30 66 41 -2 32 -9 47 -31 63 -26 19 -43 21 -205 23 -97 1 -186 -1 -197 -3z"
       id="path3899" />
    <path
       d="M24086 3706 c-18 -20 -72 -101 -118 -179 -391 -651 -427 -704 -508 -747 l-35 -19 148 -1 c143 0 147 1 137 19 -5 11 -10 32 -10 46 0 30 75 181 121 245 l29 40 248 0 247 0 77 -118 c42 -64 84 -137 94 -162 9 -25 24 -51 32 -57 11 -9 59 -13 156 -13 l141 0 -52 35 c-84 56 -81 52 -446 633 -152 243 -180 283 -205 300 -21 14 -24 12 -56 -22z m78 -286 c63 -101 115 -208 116 -236 0 -18 -36 -24 -147 -24 -93 0 -102 2 -108 20 -3 11 -4 23 -1 28 9 14 -11 35 -28 29 -10 -4 -16 -18 -16 -37 0 -28 -3 -30 -34 -30 -57 0 -54 23 23 169 71 134 107 191 119 191 4 0 38 -50 76 -110z"
       id="path3901" />
    <path
       d="M26755 3720 c-33 -10 -95 -25 -139 -35 -120 -26 -207 -76 -307 -175 -100 -99 -114 -133 -114 -270 0 -97 19 -148 83 -232 104 -137 306 -225 591 -258 155 -18 428 -9 571 20 63 13 117 25 120 27 3 3 7 85 10 184 l5 180 40 34 40 33 -30 8 c-39 10 -259 11 -307 1 -45 -9 -49 -23 -9 -32 16 -3 35 -12 41 -20 31 -37 31 -313 0 -350 -17 -20 -148 -49 -220 -49 -134 0 -326 47 -459 111 -119 57 -197 131 -244 230 -31 65 -32 73 -32 185 1 94 4 121 17 135 9 10 37 41 63 69 52 59 156 118 225 129 25 4 81 16 125 28 112 29 233 27 418 -7 190 -34 240 -59 278 -140 18 -38 35 -43 43 -14 8 32 7 161 -2 174 -4 6 -38 14 -77 17 -38 3 -90 13 -114 21 -67 24 -531 21 -616 -4z"
       id="path3903" />
    <path
       d="M28506 3710 c-28 -34 -173 -265 -364 -580 -174 -288 -227 -353 -297 -363 -16 -2 43 -5 133 -6 l163 -1 -15 22 c-9 12 -16 32 -16 43 0 11 33 79 74 150 l73 130 254 2 254 2 70 -110 c39 -60 84 -138 100 -172 l31 -62 154 -2 155 -2 -46 24 c-75 39 -146 129 -308 391 -210 337 -361 564 -376 564 -7 0 -25 -14 -39 -30z m111 -351 c46 -79 83 -154 83 -167 l0 -22 -187 2 c-185 3 -188 3 -191 25 -2 13 32 83 85 177 83 146 89 155 108 142 11 -7 57 -78 102 -157z"
       id="path3905" />
    <path
       d="M7080 3725 c0 -2 13 -11 30 -20 49 -25 52 -52 48 -475 -3 -378 -3 -386 -26 -427 l-22 -43 187 2 c104 0 174 3 156 5 -23 3 -41 16 -63 43 l-30 38 0 398 1 399 23 26 c13 15 36 34 52 43 27 14 17 15 -163 16 -106 0 -193 -2 -193 -5z"
       id="path3907" />
    <path
       d="M7775 3706 c73 -34 102 -70 265 -326 51 -80 114 -174 140 -210 26 -36 51 -76 55 -90 4 -14 26 -50 49 -80 24 -30 60 -88 81 -128 34 -65 83 -122 104 -122 29 0 87 67 187 215 63 94 186 276 273 405 112 167 176 252 219 292 34 31 62 59 62 62 0 4 -66 6 -146 6 l-147 0 27 -25 c14 -13 26 -29 26 -36 0 -25 -122 -242 -247 -439 -71 -113 -138 -220 -149 -238 -14 -25 -25 -32 -43 -30 -21 3 -58 57 -223 328 l-199 325 4 58 3 57 -195 0 -196 0 50 -24z"
       id="path3909" />
    <path
       d="M9525 3715 c17 -7 41 -32 55 -57 l25 -43 0 -340 c0 -335 -4 -385 -36 -466 -7 -18 -20 -29 -40 -33 -67 -13 -21 -23 94 -19 67 2 210 1 317 -4 107 -4 232 -7 278 -5 l83 4 30 41 c24 32 29 49 25 71 -4 16 -9 32 -11 35 -3 2 -25 -14 -48 -37 l-43 -43 -135 -6 c-189 -8 -261 1 -305 39 l-34 30 0 163 c0 90 3 170 6 179 5 14 30 16 177 16 166 0 173 -1 225 -27 64 -32 73 -26 80 52 5 63 3 64 -68 39 -54 -19 -306 -28 -363 -13 -27 7 -41 18 -48 37 -12 30 -8 300 4 320 9 13 244 17 357 5 57 -6 64 -9 82 -40 11 -18 23 -33 27 -33 10 0 51 87 51 108 0 41 -8 42 -419 41 -338 -1 -392 -3 -366 -14z"
       id="path3911" />
    <path
       d="M10790 3720 c0 -5 9 -10 20 -10 11 0 28 -12 37 -27 15 -23 19 -61 25 -238 4 -115 3 -298 -1 -406 -6 -176 -9 -199 -29 -233 -12 -20 -22 -39 -22 -42 0 -2 82 -3 183 -3 100 1 166 4 147 8 -32 5 -37 12 -59 66 -18 46 -24 80 -25 150 -1 118 8 161 37 169 36 10 209 7 249 -5 25 -6 68 -38 127 -93 161 -150 303 -248 393 -271 81 -21 248 -36 288 -26 l35 9 -37 1 c-59 2 -264 130 -465 292 -48 39 -105 80 -125 92 -27 14 -38 28 -38 44 0 16 11 28 38 42 60 31 128 98 156 153 44 88 31 165 -38 226 -66 58 -111 75 -226 83 -58 4 -123 12 -145 18 -52 14 -525 15 -525 1z m549 -61 c108 -17 170 -61 210 -149 73 -161 -65 -313 -284 -314 -65 0 -90 5 -137 27 l-58 26 0 200 0 199 33 11 c66 20 104 20 236 0z"
       id="path3913" />
    <path
       d="M13540 3721 c0 -6 5 -13 10 -16 6 -4 20 -25 33 -48 22 -41 22 -48 22 -397 -1 -380 2 -354 -50 -482 -7 -17 5 -18 166 -18 157 1 171 2 142 15 -20 8 -40 30 -55 57 -23 42 -23 49 -26 398 -4 386 -1 407 49 465 l31 35 -161 0 c-94 0 -161 -4 -161 -9z"
       id="path3915" />
    <path
       d="M14237 3712 c2 -10 -5 -37 -17 -60 -12 -23 -19 -49 -16 -58 5 -12 12 -10 43 15 21 16 58 35 83 40 67 16 402 14 423 -1 15 -12 17 -48 18 -359 1 -328 0 -351 -21 -425 -12 -44 -27 -85 -32 -91 -8 -10 24 -13 156 -13 l167 0 -24 23 c-13 12 -34 45 -46 74 -20 50 -21 67 -21 422 l0 371 26 6 c14 4 114 5 221 2 l194 -5 39 -38 c22 -21 43 -36 46 -32 10 10 10 119 1 135 -6 9 -143 12 -627 12 -594 0 -618 -1 -613 -18z"
       id="path3917" />
    <path
       d="M16690 3683 c-1 -47 -3 -50 -128 -189 -70 -77 -148 -164 -174 -193 l-48 -53 -34 21 c-19 12 -46 38 -62 59 -15 20 -87 98 -160 173 -105 108 -135 144 -144 177 l-11 42 -149 0 c-83 0 -150 -2 -150 -3 0 -2 37 -32 83 -67 45 -34 173 -155 285 -268 l202 -206 0 -158 c0 -171 -9 -212 -51 -242 -22 -15 -11 -16 176 -14 110 0 185 3 168 5 -22 3 -42 16 -63 41 l-30 37 0 173 c0 200 -18 157 144 341 111 126 233 236 344 308 45 30 82 56 82 59 0 2 -63 4 -140 4 l-140 0 0 -47z"
       id="path3919" />
    <path
       d="M19800 3718 c48 -20 55 -25 75 -59 19 -32 20 -52 20 -384 0 -337 -1 -353 -23 -419 -12 -38 -27 -75 -33 -83 -10 -11 20 -13 167 -13 158 1 175 2 148 14 -22 10 -37 28 -54 67 -21 46 -24 74 -28 196 -2 79 -1 154 2 168 l6 25 197 0 197 0 42 -41 43 -42 6 34 c3 19 5 55 3 79 -3 51 3 49 -116 31 -95 -14 -347 -4 -363 15 -15 18 -24 202 -14 288 l7 68 225 -3 225 -4 27 -33 c15 -17 30 -32 34 -32 15 0 38 64 35 98 l-3 37 -425 2 c-302 1 -418 -1 -400 -9z"
       id="path3921" />
    <path
       d="M25148 3717 c23 -7 40 -22 55 -51 21 -40 22 -50 22 -411 0 -349 -1 -373 -20 -420 -15 -35 -27 -51 -42 -53 -12 -2 -26 -9 -31 -15 -8 -9 41 -12 211 -12 122 0 310 -2 417 -4 132 -3 204 -1 222 7 17 7 34 28 47 58 39 87 19 111 -43 50 -45 -45 -76 -51 -281 -51 -231 0 -237 2 -272 73 l-28 57 0 335 0 335 25 44 c19 35 34 47 65 57 34 10 11 12 -170 12 -162 0 -202 -2 -177 -11z"
       id="path3923" />
    <path
       d="M29567 3714 c20 -9 41 -30 55 -56 23 -42 23 -47 23 -403 -1 -387 2 -353 -50 -477 -7 -17 5 -18 166 -17 96 1 162 4 148 6 -60 9 -88 78 -89 219 0 56 3 116 6 133 l7 31 149 0 149 0 102 -90 c136 -119 271 -220 332 -249 60 -28 176 -50 265 -50 l65 -1 -25 20 c-14 10 -57 35 -96 55 -113 56 -474 330 -474 359 0 22 30 54 74 80 69 40 146 152 146 211 0 55 -64 141 -130 175 -46 23 -128 40 -198 40 -31 0 -75 7 -97 15 -31 11 -98 14 -300 14 -233 -1 -257 -2 -228 -15z m543 -59 c90 -19 107 -28 163 -93 l47 -53 0 -83 0 -83 -50 -47 c-104 -97 -228 -122 -370 -73 l-65 22 0 205 0 204 25 7 c45 13 177 9 250 -6z"
       id="path3925" />
    <path
       d="M30820 3722 c0 -14 53 -59 95 -80 23 -12 125 -106 237 -220 234 -236 240 -245 246 -402 4 -117 -6 -169 -43 -224 l-24 -36 182 1 c124 1 172 4 152 10 -66 20 -99 116 -94 276 4 95 7 113 31 153 37 63 368 394 460 460 42 30 77 59 77 63 1 4 -56 6 -125 5 l-127 -3 -16 -60 c-10 -33 -21 -67 -26 -77 -15 -26 -323 -338 -334 -338 -10 0 -40 31 -236 245 -115 126 -142 162 -159 218 -5 15 -21 17 -151 17 -80 0 -145 -4 -145 -8z"
       id="path3927" />
    <path
       d="M4010 2444 c-98 -18 -210 -34 -242 -34 -90 0 -343 -104 -503 -208 -212 -136 -410 -430 -446 -662 -6 -39 -17 -87 -25 -106 -22 -53 -19 -260 5 -332 11 -31 19 -73 19 -94 0 -20 3 -50 7 -68 14 -63 85 -223 131 -293 68 -104 261 -292 360 -349 161 -95 324 -156 469 -178 44 -6 100 -19 125 -28 39 -15 89 -17 355 -17 274 0 315 2 349 18 21 9 55 17 75 17 50 0 132 25 164 51 36 28 63 119 92 314 23 156 23 160 5 179 -10 10 -24 16 -32 14 -7 -3 -27 -43 -43 -89 -27 -73 -39 -91 -105 -159 -119 -121 -165 -136 -450 -146 -204 -7 -317 7 -432 56 -202 86 -420 285 -511 465 -103 206 -134 408 -107 700 17 179 66 328 156 472 105 169 279 265 549 302 110 16 181 14 329 -9 160 -25 215 -40 321 -91 64 -30 91 -51 125 -92 58 -71 100 -162 108 -238 8 -71 23 -83 58 -50 19 17 21 35 28 224 4 112 4 235 0 272 -8 76 -18 85 -102 85 -26 0 -72 7 -102 16 -30 8 -107 19 -170 25 -63 5 -140 14 -170 20 -58 11 -348 21 -390 13z"
       id="path3929" />
    <path
       d="M15560 2444 c-99 -18 -210 -34 -242 -34 -57 0 -249 -65 -362 -123 -183 -93 -353 -245 -449 -399 -77 -124 -137 -285 -148 -397 -5 -53 -14 -121 -19 -153 -8 -42 -8 -75 0 -116 6 -31 15 -100 20 -152 14 -147 88 -339 185 -475 23 -33 80 -96 126 -140 189 -181 432 -301 678 -335 44 -6 98 -19 118 -28 33 -15 78 -17 358 -17 278 0 324 2 345 16 14 9 50 18 80 21 30 2 83 17 117 32 l62 28 26 78 c15 45 29 117 34 171 4 52 13 104 19 116 17 30 15 98 -2 113 -27 21 -58 8 -62 -26 -5 -45 -82 -172 -136 -226 -55 -53 -133 -94 -216 -110 -32 -7 -146 -12 -262 -13 -174 0 -215 3 -270 19 -243 72 -447 216 -573 405 -61 90 -86 147 -131 297 -36 121 -36 122 -36 312 0 224 11 315 51 436 48 146 93 221 183 311 66 65 100 90 184 133 57 28 115 52 130 52 15 0 78 9 141 20 146 26 188 25 376 -5 176 -28 248 -54 347 -121 106 -72 158 -155 166 -267 4 -56 9 -71 27 -83 55 -36 65 -2 65 244 0 95 5 193 11 218 11 41 9 47 -15 84 -26 40 -27 40 -89 40 -34 0 -94 9 -132 20 -38 11 -95 20 -125 20 -30 0 -98 7 -150 15 -94 16 -382 28 -430 19z"
       id="path3931" />
    <path
       d="M24293 2442 c-7 -4 -26 -41 -43 -82 -17 -41 -56 -127 -85 -190 -94 -202 -240 -537 -344 -795 -56 -137 -124 -297 -151 -355 -27 -58 -74 -163 -104 -235 -77 -184 -211 -481 -230 -510 -18 -27 -54 -40 -89 -31 -89 22 -311 244 -588 587 -73 90 -163 199 -201 242 -96 109 -94 125 30 221 34 27 87 79 116 115 140 172 174 248 183 411 9 159 -33 276 -138 386 -100 103 -189 141 -429 180 -140 24 -172 26 -330 20 -96 -3 -218 -9 -270 -12 -52 -4 -193 -1 -313 6 -232 14 -270 11 -275 -26 -5 -32 17 -42 103 -50 95 -8 115 -18 152 -81 l28 -48 0 -925 0 -925 -29 -62 c-16 -35 -34 -68 -42 -74 -7 -5 -40 -14 -74 -19 -66 -9 -90 -23 -90 -50 0 -16 33 -18 449 -24 453 -8 491 -6 491 27 -1 31 -20 39 -123 49 l-107 11 -24 41 c-21 37 -25 62 -36 241 -7 110 -11 280 -9 377 5 226 -1 218 136 195 54 -9 126 -20 160 -23 l62 -6 113 -162 c361 -517 504 -668 686 -727 63 -21 90 -22 497 -26 353 -4 433 -2 448 9 39 29 -14 68 -93 68 -22 0 -48 8 -61 19 -19 15 -23 28 -23 82 -1 53 6 80 41 164 23 55 62 150 86 212 25 61 56 132 71 157 l27 46 338 0 c186 0 359 -3 383 -6 l46 -6 37 -97 c21 -53 71 -175 110 -271 86 -208 96 -255 64 -306 -20 -32 -20 -37 -6 -51 13 -14 65 -16 386 -17 377 -1 399 1 386 36 -8 21 -46 35 -115 43 -30 4 -69 16 -87 27 -47 28 -128 141 -164 228 -17 41 -45 102 -61 134 -16 32 -45 100 -64 150 -20 50 -50 118 -68 151 -18 33 -39 78 -46 100 -7 22 -30 81 -53 130 -44 99 -107 252 -197 475 -32 80 -98 237 -148 350 -225 511 -224 510 -275 510 -17 0 -37 -4 -44 -8z m-2188 -236 c133 -51 197 -115 256 -254 28 -67 33 -91 37 -183 2 -58 -1 -139 -7 -180 -23 -151 -123 -294 -249 -356 -52 -26 -66 -28 -167 -28 -88 1 -122 5 -169 23 -33 12 -65 27 -70 32 -7 7 -12 161 -14 460 -2 384 0 454 13 486 l15 36 142 -4 c125 -4 152 -8 213 -32z m2264 -665 c131 -339 175 -467 167 -486 -5 -13 -45 -15 -295 -15 -288 0 -289 0 -294 22 -3 12 2 44 13 72 30 83 169 425 205 506 18 41 36 86 40 100 4 14 16 40 28 59 14 24 22 30 28 20 4 -8 53 -133 108 -278z"
       id="path3933" />
    <path
       d="M26810 2434 c-41 -8 -109 -17 -150 -18 -176 -7 -461 -136 -641 -289 -127 -109 -254 -295 -299 -442 -12 -38 -31 -92 -43 -120 -17 -40 -22 -82 -28 -215 -4 -92 -2 -201 3 -245 15 -126 88 -336 153 -440 71 -113 144 -204 203 -253 161 -134 423 -255 637 -293 33 -6 94 -18 135 -27 110 -24 511 -28 629 -7 47 9 115 20 151 25 36 6 90 23 120 38 54 26 55 29 77 97 12 39 22 91 22 116 1 26 10 77 21 113 14 43 20 87 18 124 -3 51 -5 57 -26 60 -27 4 -52 -14 -52 -37 0 -9 -16 -49 -35 -89 -61 -128 -174 -217 -305 -242 -30 -6 -119 -13 -197 -17 -222 -10 -376 18 -528 95 -248 124 -432 334 -508 577 -40 130 -51 217 -52 410 0 171 2 186 32 305 37 143 80 237 152 332 139 183 332 267 656 284 98 6 126 3 260 -25 306 -63 459 -183 486 -379 7 -53 15 -72 35 -90 15 -13 29 -20 33 -17 3 4 9 70 12 148 4 78 14 196 23 261 24 167 10 188 -134 199 -41 3 -95 13 -119 21 -24 9 -73 16 -110 16 -36 0 -106 7 -156 16 -134 23 -383 27 -475 8z"
       id="path3935" />
    <path
       d="M29906 2435 c-45 -45 -44 -26 -49 -905 -4 -640 -9 -884 -21 -1043 -21 -262 -27 -278 -127 -293 -70 -10 -108 -24 -120 -46 -6 -11 -8 -23 -4 -26 9 -10 795 -9 824 1 23 7 23 8 6 27 -21 23 -65 37 -146 45 -72 8 -98 35 -129 130 -21 67 -23 92 -31 585 -8 472 -18 711 -35 782 -17 76 24 41 383 -317 197 -197 444 -439 548 -538 105 -99 308 -294 453 -431 255 -243 354 -326 392 -326 45 0 50 21 50 209 0 145 3 184 16 211 15 29 18 123 24 866 7 784 9 835 26 870 26 52 58 72 134 86 73 13 90 22 90 49 0 34 -44 42 -180 33 -150 -10 -235 -9 -441 1 -165 8 -199 2 -199 -34 0 -29 20 -38 103 -45 89 -7 139 -25 160 -58 9 -12 25 -71 36 -129 20 -100 22 -139 24 -745 2 -609 1 -639 -16 -639 -10 0 -370 352 -860 842 -543 543 -851 844 -868 848 -18 4 -31 1 -43 -10z"
       id="path3937" />
    <path
       d="M5347 2395 c-16 -15 -16 -20 -4 -39 12 -17 29 -23 88 -29 83 -9 153 -38 172 -70 9 -17 12 -238 12 -977 0 -893 -1 -958 -18 -1001 -24 -62 -45 -79 -110 -88 -54 -7 -107 -32 -107 -51 0 -5 8 -13 18 -18 9 -5 228 -7 486 -6 400 2 471 4 483 17 26 26 -22 47 -134 58 -155 15 -159 25 -172 405 -9 279 -2 616 12 631 5 4 267 8 582 8 549 0 574 -1 594 -19 21 -19 21 -26 21 -352 0 -358 -14 -530 -50 -610 -16 -37 -24 -44 -62 -54 -100 -24 -118 -32 -129 -51 -6 -11 -8 -24 -4 -27 9 -9 877 -15 933 -7 25 4 46 13 49 21 12 31 -22 45 -123 54 -55 5 -106 11 -114 15 -9 3 -28 26 -43 51 l-27 45 -6 577 c-3 317 -2 755 3 972 7 354 10 398 26 421 22 32 53 45 130 54 51 6 87 24 87 43 0 4 -5 14 -10 22 -8 13 -34 14 -162 11 -171 -5 -363 -5 -605 0 -175 4 -191 0 -179 -45 5 -22 13 -25 64 -31 101 -11 119 -15 153 -38 29 -19 35 -31 41 -72 3 -28 11 -66 17 -85 15 -48 15 -696 0 -705 -33 -21 -1156 -15 -1190 6 -11 6 -13 75 -11 366 1 197 5 378 8 403 12 86 44 119 115 120 91 0 148 43 103 78 -16 11 -45 13 -164 6 -190 -10 -386 -10 -590 1 -152 7 -167 6 -183 -10z"
       id="path3939" />
    <path
       d="M8315 2403 c-31 -8 -38 -19 -31 -47 6 -23 11 -25 98 -32 l92 -7 48 -48 48 -48 0 -638 c0 -662 5 -759 45 -913 48 -185 189 -383 332 -467 55 -32 155 -69 238 -88 33 -8 85 -21 115 -30 76 -22 436 -16 523 9 188 53 313 117 414 210 76 70 120 129 167 222 52 104 65 153 91 334 22 154 24 206 29 774 l5 610 34 33 c28 29 44 36 103 44 76 11 100 26 89 58 -9 29 -57 35 -189 25 -135 -10 -248 -10 -426 0 -159 10 -193 2 -188 -41 3 -26 7 -28 85 -39 48 -7 95 -20 116 -33 32 -19 36 -28 56 -114 20 -88 21 -116 21 -672 0 -485 -3 -588 -15 -629 -8 -27 -15 -75 -15 -106 0 -115 -75 -287 -159 -362 -63 -57 -189 -123 -272 -143 -101 -23 -224 -19 -332 11 -187 52 -277 131 -370 324 -28 59 -37 93 -42 155 -4 44 -13 108 -20 142 -11 48 -15 182 -15 625 -1 484 1 574 15 641 9 44 20 89 25 102 12 32 53 51 122 58 70 7 78 11 78 43 0 45 -29 49 -253 34 -111 -7 -240 -10 -287 -6 -129 10 -352 16 -375 9z"
       id="path3941" />
    <path
       d="M11057 2396 c-41 -41 -14 -64 88 -73 73 -6 81 -9 116 -44 22 -22 43 -55 49 -78 7 -28 10 -320 8 -943 l-3 -903 -24 -59 c-32 -79 -59 -106 -109 -106 -71 0 -125 -31 -106 -61 3 -5 325 -9 778 -9 l772 0 26 27 c37 39 48 74 48 151 0 37 7 98 15 137 20 95 19 122 -5 135 -30 16 -56 -3 -64 -47 -9 -56 -61 -139 -107 -173 -69 -49 -156 -63 -386 -57 -294 6 -358 33 -394 163 -18 65 -19 116 -19 906 0 750 2 842 16 878 22 53 66 76 163 82 56 4 78 10 88 24 17 23 16 29 -4 50 -15 15 -33 16 -173 9 -211 -11 -415 -11 -600 -1 -141 8 -157 7 -173 -8z"
       id="path3943" />
    <path
       d="M13052 2400 c-18 -7 -23 -16 -20 -37 3 -31 26 -40 99 -42 55 -1 91 -26 119 -82 19 -37 20 -62 20 -951 0 -1127 6 -1076 -132 -1096 -82 -12 -108 -24 -108 -48 0 -35 40 -37 516 -28 307 6 469 13 471 19 2 6 -3 19 -10 29 -11 15 -33 20 -110 25 -111 7 -138 21 -174 92 l-22 44 -1 937 c0 843 2 942 16 978 20 49 63 74 143 83 78 9 101 36 64 73 -16 15 -32 16 -173 8 -187 -10 -326 -10 -525 -1 -95 5 -159 4 -173 -3z"
       id="path3945" />
    <path
       d="M16918 2404 c-9 -3 -19 -12 -22 -20 -6 -16 9 -54 22 -55 172 -13 202 -26 242 -105 l25 -49 3 -805 c2 -682 0 -823 -13 -925 -27 -210 -41 -236 -133 -254 -67 -13 -98 -31 -90 -53 8 -19 243 -28 652 -27 281 1 326 5 333 26 8 24 -48 46 -139 54 -104 10 -129 22 -160 82 -23 42 -23 44 -23 497 l0 455 70 8 c39 5 305 7 593 5 443 -3 525 -6 533 -19 6 -8 8 -185 7 -444 l-3 -430 -26 -56 c-38 -80 -59 -99 -113 -99 -79 0 -132 -36 -94 -64 17 -12 947 -14 967 -2 18 12 12 35 -11 47 -13 7 -62 16 -110 20 -49 5 -96 13 -106 18 -10 5 -31 34 -48 63 l-29 53 -3 938 c-2 909 -2 940 17 982 23 52 54 70 134 78 63 6 87 19 87 47 0 39 -22 43 -188 34 -185 -10 -328 -10 -547 0 -186 9 -218 3 -213 -42 3 -26 5 -27 96 -37 92 -10 94 -11 132 -51 21 -23 43 -59 49 -80 14 -50 15 -722 1 -758 l-10 -26 -557 0 c-307 0 -575 3 -595 6 l-38 7 1 391 c0 276 4 401 12 426 17 48 63 76 137 83 65 6 90 19 90 48 0 36 -35 42 -190 33 -169 -10 -341 -10 -565 -1 -88 3 -167 4 -177 1z"
       id="path3947" />
    <path
       d="M28241 2397 c-8 -10 -11 -27 -7 -41 5 -22 13 -25 76 -32 83 -8 109 -24 142 -92 l23 -47 0 -865 c0 -803 -1 -872 -19 -965 -10 -55 -23 -108 -28 -118 -13 -25 -68 -47 -118 -47 -27 0 -47 -7 -60 -20 -25 -25 -25 -37 -1 -50 26 -13 910 -14 945 0 14 5 26 17 26 25 0 25 -56 42 -160 49 -107 7 -116 13 -145 95 -13 39 -15 168 -15 989 0 881 1 946 18 974 22 39 72 64 145 72 65 8 86 30 66 67 -11 22 -14 22 -163 14 -191 -11 -370 -11 -561 0 -133 7 -152 6 -164 -8z"
       id="path3949" />
  </g>
</svg>
