<svg xmlns="http://www.w3.org/2000/svg" xmlns:xlink="http://www.w3.org/1999/xlink" version="1.1" x="0px" y="0px" viewBox="0 0 125 125" enable-background="new 0 0 100 100" xml:space="preserve" fill='#fff'>
<g>
<path d="M87.695,53.157c-0.27-4.001-0.805-10.059-0.833-10.384l-0.08-0.899l-0.832-0.351c-0.33-0.139-3.282-1.358-5.32-1.358   c-0.369,0-0.694,0.037-0.994,0.112c-2.311,0.583-3.39,3.327-3.505,3.638l-1.595,7.847l-0.139,0.099l0.122,0.374   c0.001,0.067-0.041,0.11-0.055,0.125c-0.06,0.061-0.417,0.361-1.638,0.361c-0.144,0-0.294-0.004-0.453-0.013   c-3.627-0.197-15.274-1.087-17.871-1.287c-3.836-3.551-9.802-4.836-14.215-5.279c-5.312-0.523-10.301,4.502-10.511,4.716   c-0.03,0.031-0.041,0.072-0.068,0.105c-2.033,0.293-5.261,1.106-6.951,1.551l0.374-7.881c0.039-0.828-0.6-1.53-1.427-1.57   c-0.831-0.042-1.531,0.6-1.57,1.427l-0.419,8.833c-0.951,0.167-2.273,1.177-2.306,1.875c-0.034,0.698,1.185,1.895,2.113,2.198   l-0.422,8.902c-0.039,0.828,0.6,1.53,1.427,1.57c0.024,0.001,0.048,0.001,0.072,0.001c0.796,0,1.459-0.625,1.498-1.429l0.232-4.894   c0.342,0.392,0.758,0.769,1.285,1.063c0.064,0.036,0.484,0.264,1.181,0.587c-0.019,0.084-0.034,0.17-0.039,0.259l-0.224,4.721   c-0.667,0.448-1.12,1.211-1.161,2.094c-0.067,1.447,1.009,2.703,2.398,2.8l0.176,0.006c1.36,0,2.477-1.106,2.542-2.519   c0.04-0.876-0.345-1.678-0.959-2.199l0.189-3.99c2.839,0.994,6.947,2.037,11.735,2.037l0.361-0.002   c0.554-0.006,1.254-0.044,2.056-0.104l1.757,2.436c-0.279,0.46-0.463,0.988-0.489,1.565c-0.083,1.814,1.313,3.393,3.112,3.518   c0.078,0.006,0.155,0.008,0.231,0.008c1.746,0,3.177-1.378,3.257-3.139c0.081-1.814-1.317-3.391-3.115-3.515   c-0.143-0.01-0.278,0.005-0.417,0.013l-0.875-1.212c11.433-1.248,33.189-4.833,38.14-5.659c0.959,0.064,1.883,0.101,2.74,0.101   c2.1,0,6.007,0,6.166-3.341C92.49,54.668,90.492,53.66,87.695,53.157z M78.981,44.864c0.273-0.653,0.874-1.549,1.39-1.679   c0.02-0.005,0.098-0.021,0.26-0.021c0.837,0,2.25,0.413,3.324,0.801c0.155,1.787,0.494,5.786,0.708,8.821   c-0.299-0.025-0.602-0.048-0.906-0.07c-1.041-0.075-2.037-0.113-2.962-0.113c-0.925,0-2.202,0.001-3.354,0.287   c0.059-0.284,0.083-0.545,0.077-0.738L78.981,44.864z M39.987,49.126c3.018,0.303,8.28,1.21,11.741,3.875   c-0.466,0.172-1.198,0.301-2.309,0.22c-3.927-0.284-14.318-0.808-15.765-0.88c-0.244-0.073-0.526-0.181-0.743-0.284   C34.549,50.704,37.41,48.863,39.987,49.126z M39.778,63.405l-0.328,0.002c-8.169,0-14.313-3.382-14.375-3.416   c-0.564-0.315-0.917-0.995-1.049-1.339l-0.214-3.313c2.237-0.581,5.144-1.27,6.573-1.444c0.674,0.761,1.84,1.179,2.649,1.389   l0.302,0.046c0.117,0.006,11.695,0.583,15.866,0.884c0.32,0.023,0.619,0.034,0.9,0.034c2.642,0,3.962-0.945,4.617-1.801   c3.296,0.252,14.015,1.068,17.489,1.256c0.216,0.012,0.421,0.018,0.616,0.018c0.7,0,1.305-0.095,1.859-0.24   c-0.025,0.148-0.049,0.297-0.057,0.46c-0.055,1.155,0.383,1.983,1.154,2.593C64.57,60.339,45.161,63.345,39.778,63.405z    M86.21,57.417c-0.822,0-1.756-0.034-2.747-0.105c-3.246-0.234-5.861-0.784-5.84-1.226c0.015-0.308,1.299-0.483,3.17-0.483   c0.821,0,1.756,0.034,2.746,0.105c3.246,0.234,5.86,0.783,5.839,1.226C89.365,57.241,88.082,57.417,86.21,57.417z"/>
<path d="M44.104,56.858c-0.727-0.02-1.43-0.029-2.1-0.029c-6.212,0-7.328,0.547-7.355,2.091c-0.019,1.177-0.038,2.288,9.343,2.543   c0.734,0.021,1.445,0.03,2.122,0.03c6.192,0,7.305-0.546,7.334-2.09C53.467,58.227,53.486,57.115,44.104,56.858z"/>
<path d="M12.583,69.892c-2.51-3.865-3.886-8.4-3.886-13.046c0-7.206,3.2-13.962,8.777-18.536c0.641-0.525,0.734-1.47,0.208-2.111   c-0.524-0.64-1.47-0.734-2.111-0.208c-6.275,5.146-9.874,12.747-9.875,20.855c0,5.56,1.736,10.987,4.914,15.506L5.299,72.15   l2.937,3.166l7.188,0.271l0.271-7.188l-2.937-3.167L12.583,69.892z"/>
</g>
</svg>