<svg xmlns="http://www.w3.org/2000/svg" xmlns:xlink="http://www.w3.org/1999/xlink" version="1.1" x="0px" y="0px" viewBox="0 0 100 100" enable-background="new 0 0 100 100" xml:space="preserve" fill='#fff'>
<g>
<path d="M30.556,29.659c0.403,0,0.805-0.162,1.101-0.48c4.904-5.29,11.842-8.069,19.036-7.634   c4.638,0.283,9.081,1.932,12.786,4.672l-4.661-0.109L61.8,29.23l7.19,0.167l0.167-7.191l-2.982-3.123l-0.121,5.314   c-4.318-3.446-9.629-5.508-15.178-5.846c-8.096-0.493-15.9,2.638-21.418,8.588c-0.563,0.607-0.527,1.557,0.08,2.12   C29.826,29.526,30.191,29.659,30.556,29.659z"/>
<path d="M95.24,44.388c-1.109-1.001-4.56-1.202-30.257,1.333c-1.599-5.68-6.295-10.068-12.154-11.224   c-0.441-1.265-1.275-2.235-2.954-2.246c-1.675-0.01-2.52,0.945-2.977,2.201c-5.946,1.099-10.731,5.536-12.341,11.303   c-24.343-2.387-28.918-2.348-30.14-1.346c-0.352,0.289-0.569,0.689-0.612,1.128c-0.141,1.445-0.234,2.399,15.545,5.634   c4.522,0.926,9.184,1.777,13.307,2.446c-0.159,0.368-0.24,0.784-0.243,1.248c-0.011,1.858,1.243,2.967,3.729,3.297   c0.037,0.005,0.082,0.009,0.12,0.015c2.755,4.544,7.714,7.61,13.408,7.645c5.692,0.035,10.68-2.97,13.484-7.479   c0.043-0.005,0.095-0.009,0.136-0.014c2.489-0.3,3.757-1.394,3.769-3.252c0.003-0.594-0.137-1.104-0.391-1.543   c4.096-0.666,8.7-1.501,13.175-2.408c15.95-3.23,15.949-4.188,15.947-5.513C95.791,45.144,95.595,44.709,95.24,44.388z    M61.943,46.023c-0.049,0.005-0.094,0.009-0.143,0.014l-2.841,0.284c-0.996-2.48-2.973-4.455-5.443-5.472   c-0.032-1.067-0.079-2.059-0.141-2.921c-0.005-0.075-0.011-0.153-0.017-0.229C57.412,38.887,60.634,42.025,61.943,46.023z    M56.674,50.042c-0.003,0.444-0.062,0.872-0.146,1.292c-1.003-0.034-2.062-0.062-3.161-0.083c0.115-1.764,0.185-3.886,0.199-6.117   c0.001-0.295,0.002-0.587,0.002-0.878C55.444,45.501,56.688,47.625,56.674,50.042z M49.03,45.106   c0.033-5.445,0.404-9.857,0.828-9.854c0.424,0.002,0.741,4.418,0.708,9.864c-0.033,5.446-0.404,9.857-0.828,9.855   S48.997,50.551,49.03,45.106z M46.327,37.661c-0.007,0.075-0.013,0.15-0.02,0.223c-0.073,0.865-0.132,1.859-0.177,2.93   c-2.526,1.006-4.554,3.005-5.562,5.536l-2.975-0.294C38.912,41.989,42.202,38.816,46.327,37.661z M46.154,51.207   c-1.104,0.008-2.168,0.023-3.174,0.046c-0.078-0.42-0.121-0.852-0.118-1.294c0.015-2.417,1.284-4.527,3.177-5.75   c-0.004,0.291-0.007,0.583-0.009,0.879C46.016,47.318,46.061,49.442,46.154,51.207z M14.15,46.986   c7.296,0.477,17.589,1.501,23.126,2.053l2.621,0.26c-0.015,0.213-0.035,0.424-0.037,0.641c-0.003,0.479,0.043,0.947,0.108,1.408   c-0.167,0.007-0.338,0.014-0.499,0.021c-0.424,0.02-0.812,0.042-1.184,0.065C31.21,50.479,21.123,48.588,14.15,46.986z    M35.415,54.883c0.002-0.362,4.692-0.636,10.992-0.679c0.077,0.518,0.188,1.027,0.35,1.498   C40.28,55.588,35.413,55.251,35.415,54.883z M49.689,62.822c-3.781-0.023-7.153-1.704-9.478-4.333   c1.429,0.075,3.056,0.135,4.807,0.178c1.393,0.773,2.984,1.229,4.688,1.24c1.708,0.01,3.312-0.425,4.719-1.183   c1.752-0.022,3.381-0.062,4.81-0.12C56.879,61.209,53.475,62.845,49.689,62.822z M52.708,55.737   c0.168-0.469,0.285-0.976,0.368-1.492c6.298,0.119,10.985,0.45,10.982,0.812C64.057,55.426,59.187,55.703,52.708,55.737z    M60.016,51.493c-0.151-0.009-0.31-0.018-0.465-0.026c0.07-0.46,0.12-0.927,0.123-1.406c0.001-0.268-0.017-0.531-0.036-0.793   l2.461-0.245c5.467-0.548,15.529-1.556,22.845-2.058C77.601,48.613,67.067,50.563,60.016,51.493z"/>
</g>
</svg>