<svg xmlns="http://www.w3.org/2000/svg" xmlns:xlink="http://www.w3.org/1999/xlink" version="1.1" x="0px" y="0px" viewBox="0 0 195 195" style="enable-background:new 0 0 100 100;" xml:space="preserve" fill='#fff'>
<path d="M80.4,47c0.1,1,0.1,1.9,0.1,2.9l4,0c0-1.1-0.1-2.2-0.2-3.3c-0.3-2.4-0.8-4.7-1.6-7l-3.5,1.1C79.8,42.8,80.2,44.9,80.4,47z"/>
<path d="M25.5,29.9c0.7-0.8,1.4-1.5,2.1-2.2l-1.1-1.1c-0.7,0.8-1.5,1.5-2.1,2.4c-1.4,1.8-2.6,3.7-3.7,5.8l1.1,0.6  C22.8,33.4,24.1,31.6,25.5,29.9z"/>
<path d="M61.8,21.2l1.1-2.6c-1-0.4-2-0.8-3-1.1c-2.3-0.6-4.6-1-6.9-1.2l-0.2,2.5c2.1,0.2,4.3,0.7,6.3,1.3  C60,20.5,60.9,20.9,61.8,21.2z"/>
<path d="M32.4,23.7c1.7-1.1,3.5-2,5.4-2.8l-0.8-1.8c-2,0.9-3.9,1.9-5.7,3.1c-1,0.7-1.9,1.5-2.8,2.3l1.1,1.3  C30.6,25,31.5,24.4,32.4,23.7z"/>
<path d="M71.7,28.1l2.2-2.3c-1.6-1.5-3.3-2.9-5.1-4.1c-1.1-0.7-2.1-1.2-3.2-1.8l-1.3,2.5c1,0.5,2,1.1,2.9,1.7  C68.9,25.4,70.3,26.7,71.7,28.1z"/>
<path d="M18.4,56.3c-0.3-2.1-0.5-4.2-0.5-6.2l-0.8,0c0,2.1,0.3,4.3,0.7,6.4c0.3,1.2,0.6,2.3,1,3.4l0.5-0.1  C18.9,58.5,18.6,57.4,18.4,56.3z"/>
<path d="M79.8,55.9c-0.4,1.9-1.1,3.8-1.9,5.6l4,1.7c0.8-2.1,1.5-4.3,1.9-6.5c0.2-1.2,0.3-2.4,0.4-3.6l-4-0.4  C80.2,53.8,80,54.9,79.8,55.9z"/>
<path d="M73.9,30.4c1.8,2.4,3.4,4.9,4.5,7.7l3.3-1.4c-1.3-3-3.1-5.8-5.2-8.4c-0.1-0.1-0.2-0.2-0.3-0.3l-2.5,2.1  C73.7,30.3,73.8,30.3,73.9,30.4z"/>
<path d="M76.7,64.3c-1.5,2.6-3.3,4.9-5.4,7c0,0,0,0,0,0l3.4,3.4c0,0,0,0,0,0c2.3-2.5,4.4-5.3,6-8.3c0-0.1,0.1-0.2,0.1-0.2L76.8,64  C76.8,64.1,76.7,64.2,76.7,64.3z"/>
<path d="M18.1,46.9c0.4-3.1,1.2-6.1,2.4-9l-1.1-0.5c-1.1,3-1.9,6.2-2.2,9.4c0,0.1,0,0.2,0,0.3l0.9,0.1C18.1,47.1,18.1,47,18.1,46.9z  "/>
<path d="M20.2,62.4l-0.4,0.2c0.4,1,0.9,1.9,1.4,2.8c1.1,2,2.4,3.8,3.9,5.5l0.1-0.1c-1.4-1.7-2.6-3.6-3.7-5.5  C21,64.3,20.6,63.4,20.2,62.4z"/>
<path d="M50,96c25.4,0,46-20.6,46-46S75.4,4,50,4S4,24.6,4,50S24.6,96,50,96z M50,6c24.3,0,44,19.7,44,44S74.3,94,50,94S6,74.3,6,50  S25.7,6,50,6z"/>
<path d="M40.9,19.9c2.7-0.7,5.5-1.1,8.3-1.2l-1,25.6C45.8,45,44,47.3,44,50c0,3.3,2.7,6,6,6s6-2.7,6-6c0-2.7-1.8-5-4.2-5.7L51,24.5  l-0.2-5.8l-0.1-2.4l-0.2-5.8l0-0.5c0-0.3-0.2-0.5-0.5-0.5s-0.5,0.2-0.5,0.5l-0.2,6.4c-3.1,0.1-6.1,0.7-9,1.5c-0.1,0-0.2,0.1-0.3,0.1  l0.6,2C40.7,20,40.8,19.9,40.9,19.9z M50,46c2.2,0,4,1.8,4,4c0,2.2-1.8,4-4,4s-4-1.8-4-4C46,47.8,47.8,46,50,46z"/>
</svg>