<svg xmlns="http://www.w3.org/2000/svg" data-name="Layer 1" viewBox="0 0 100 100" x="0px" y="0px" fill='#fff'>
<g>
<path d="M95,39.61L85.42,37.7a38.72,38.72,0,0,0-1.68-4l5.43-8.14a6.24,6.24,0,0,0-.78-7.89l-6-6a6.24,6.24,0,0,0-7.89-.78l-8.14,5.43a40.91,40.91,0,0,0-4-1.68L60.38,5a6.24,6.24,0,0,0-6.13-5h-8.5a6.27,6.27,0,0,0-6.13,5l-1.91,9.57a38.71,38.71,0,0,0-4,1.68l-8.14-5.43a6.24,6.24,0,0,0-3.46-1.05,6.18,6.18,0,0,0-4.41,1.84l-6,6a6.24,6.24,0,0,0-.78,7.89l5.43,8.14a40.58,40.58,0,0,0-1.68,4L5,39.61a6.24,6.24,0,0,0-5,6.13v8.5a6.27,6.27,0,0,0,5,6.13l9.57,1.91a38.72,38.72,0,0,0,1.68,4l-5.41,8.14a6.24,6.24,0,0,0,.78,7.89l6,6a6.21,6.21,0,0,0,7.87.78l8.14-5.43a40.57,40.57,0,0,0,4,1.68L39.62,95a6.25,6.25,0,0,0,6.13,5h8.5a6.26,6.26,0,0,0,6.13-5l1.91-9.57a38.71,38.71,0,0,0,4-1.68l8.14,5.43a6.24,6.24,0,0,0,7.89-.78l6-6a6.24,6.24,0,0,0,.78-7.89l-5.43-8.14a38,38,0,0,0,1.68-4L95,60.39a6.24,6.24,0,0,0,5-6.13v-8.5A6.21,6.21,0,0,0,95,39.61ZM84.17,56.15a6.24,6.24,0,0,0-4.67,4.08,33.85,33.85,0,0,1-1.41,3.36,6.22,6.22,0,0,0,.43,6.19L84,77.93l-6,6-8.14-5.43a6.15,6.15,0,0,0-3.46-1.05,6.28,6.28,0,0,0-2.71.63,33.84,33.84,0,0,1-3.36,1.41,6.27,6.27,0,0,0-4.08,4.67l-1.91,9.57h-8.5l-1.91-9.59a6.24,6.24,0,0,0-4.08-4.67c-1.15-.41-2.29-0.88-3.36-1.39a6.09,6.09,0,0,0-2.73-.63,6.26,6.26,0,0,0-3.48,1.05l-8.14,5.43-6-6,5.43-8.14a6.27,6.27,0,0,0,.43-6.19,33.84,33.84,0,0,1-1.41-3.36,6.27,6.27,0,0,0-4.67-4.08L6.26,54.24v-8.5l9.59-1.91a6.24,6.24,0,0,0,4.67-4.08,33.85,33.85,0,0,1,1.41-3.36,6.22,6.22,0,0,0-.43-6.19l-5.43-8.13,6-6,8.14,5.43a6.15,6.15,0,0,0,3.46,1.05,6.28,6.28,0,0,0,2.71-.63,32,32,0,0,1,3.36-1.41,6.27,6.27,0,0,0,4.08-4.67l1.91-9.57h8.5l1.91,9.59a6.24,6.24,0,0,0,4.08,4.67c1.15,0.41,2.27.88,3.36,1.39a6.36,6.36,0,0,0,2.73.63,6.26,6.26,0,0,0,3.48-1.05L78,16.05l6,6-5.43,8.14a6.27,6.27,0,0,0-.43,6.19,33.84,33.84,0,0,1,1.41,3.36,6.27,6.27,0,0,0,4.67,4.08l9.57,1.91v8.5Z"/>
<path d="M50,30.84A19.14,19.14,0,1,0,69.15,50,19.15,19.15,0,0,0,50,30.84Zm0,31.64A12.5,12.5,0,1,1,62.51,50,12.5,12.5,0,0,1,50,62.48Z"/>
</g>
</svg>