<?xml version="1.0"?>
<svg xmlns="http://www.w3.org/2000/svg" width="50" height="50" viewBox="0 0 50 50">
    <path d="M 26 -0.03125 C 20.147 -0.03125 17.96875 1.09375 17.96875 4.09375 C 17.96875 4.56475 18.138 5.26425 18.875 5.90625 C 20.282 7.13125 23.2485 7.56825 25.3125 7.28125 C 31.3575 6.44025 34.514 7.8455 36.5 9.4375 C 35.547 10.4205 35.17425 11.304 34.90625 12 C 34.68225 12.578 34.57 12.88025 34.25 13.15625 C 33.262 14.01325 31.96275 13.606 29.59375 12.75 C 27.73975 12.079 25.448 11.25 22.75 11.25 C 16.579 11.25 11.58475 15.5575 10.46875 21.4375 C 9.68975 20.9505 8.72075 20.6875 7.71875 20.6875 C 4.92575 20.6875 2.96875 22.609 2.96875 25.375 C 2.96875 26.628 3.749 27.87925 5 28.65625 C 6.521 29.60025 8.50425 29.6945 10.53125 28.9375 C 12.12225 31.2775 15.358 31.83225 16.5 32.03125 C 16.606 32.05025 16.68475 32.0545 16.71875 32.0625 C 17.10075 32.1715 17.5645 32.2415 18.0625 32.3125 C 18.9395 32.4375 20.5625 32.67275 20.5625 33.21875 C 20.5625 33.77575 20.14975 34.228 19.46875 34.875 C 18.77475 35.532 18 36.26725 18 37.40625 C 18 40.31125 21.35925 40.61525 23.15625 40.78125 C 23.63125 40.82425 24.0975 40.8715 24.3125 40.9375 C 27.9105 42.0455 28.839 43.40525 30.375 45.65625 L 30.59375 45.96875 C 31.92575 47.91475 34.3635 49 36.1875 49 C 36.5595 49 36.91375 48.97 37.21875 48.875 C 38.16675 48.582 38.71875 47.83825 38.71875 46.90625 C 38.71875 43.14925 36.5685 40.5605 34.0625 38.8125 C 32.4345 37.6765 30.64175 36.91225 29.21875 36.40625 C 30.68775 35.24425 31.36925 33.48025 31.65625 31.90625 C 31.70125 31.63325 31.721 31.35375 31.75 31.09375 C 31.762 30.98975 31.8025 30.88225 31.8125 30.78125 C 31.8455 30.41125 31.84075 30.05875 31.84375 29.71875 C 31.84475 29.61575 31.84475 29.5315 31.84375 29.4375 C 31.76875 24.5205 28.64925 22.68575 27.40625 21.96875 C 26.91925 21.68775 26.75025 21.08175 27.03125 20.59375 C 27.31225 20.10775 27.9455 19.94775 28.4375 20.21875 C 33.6515 23.09775 35.3595 29.141 32.5625 35.625 C 32.8345 35.762 33.098 35.9095 33.375 36.0625 C 39.176 31.7005 40.74025 25.94625 40.78125 21.15625 C 41.89025 21.62425 43.1005 21.909 44.4375 22 C 46.3385 22.131 48.71025 21.48125 49.40625 20.15625 C 50.54525 17.97825 49.89375 13.74425 49.09375 12.28125 C 47.36975 9.12425 44.5675 7.5735 40.5625 7.5625 C 37.5855 2.6715 30.188 -0.03125 26 -0.03125 z M 4.28125 7 C 3.72925 7 3.28125 7.448 3.28125 8 C 3.28125 8.552 3.72925 9 4.28125 9 L 14.5 9 C 15.052 9 15.5 8.552 15.5 8 C 15.5 7.448 15.052 7 14.5 7 L 4.28125 7 z M 2.625 11 C 2.073 11 1.625 11.448 1.625 12 C 1.625 12.552 2.073 13 2.625 13 L 9.6875 13 C 10.2395 13 10.6875 12.552 10.6875 12 C 10.6875 11.448 10.2395 11 9.6875 11 L 2.625 11 z M 45.5 14 C 46.328 14 47 14.671 47 15.5 C 47 16.329 46.328 17 45.5 17 C 44.672 17 44 16.329 44 15.5 C 44 14.671 44.672 14 45.5 14 z M 1 15 C 0.448 15 0 15.448 0 16 C 0 16.552 0.448 17 1 17 L 7.40625 17 C 7.95825 17 8.40625 16.552 8.40625 16 C 8.40625 15.448 7.95825 15 7.40625 15 L 1 15 z"/>
</svg>
