<svg xmlns="http://www.w3.org/2000/svg" xmlns:xlink="http://www.w3.org/1999/xlink" version="1.1" x="0px" y="0px" viewBox="0 0 160 160" enable-background="new 0 0 100 100" xml:space="preserve">
<g>
<path fill="#fff" d="M50,0C22.43,0,0,22.43,0,50c0,27.568,22.43,50,50,50s50-22.432,50-50C100,22.43,77.57,0,50,0z    M52.066,95.902l-0.773-7.701H50h-1.293l-0.773,7.701c-5.227-0.232-10.224-1.348-14.857-3.191l1.983-5.609l-0.573-0.24   l-0.574-0.242l-2.631,5.334c-4.52-2.025-8.658-4.748-12.267-8.049l4.886-5.979l-0.914-0.914l-0.913-0.914l-5.979,4.887   c-3.258-3.563-5.954-7.641-7.97-12.094l4.741-2.264l-0.234-0.576l-0.234-0.576l-5.011,1.699c-1.902-4.703-3.053-9.787-3.289-15.107   l7.699-0.775V50v-1.293l-7.699-0.775C4.33,42.696,5.45,37.688,7.3,33.045l5.714,2.021l0.241-0.574l0.241-0.574l-5.432-2.68   c2.023-4.502,4.74-8.627,8.03-12.225l5.978,4.887l0.914-0.914l0.914-0.914l-4.886-5.978c3.551-3.248,7.616-5.938,12.052-7.951   l2.928,6.132l0.576-0.234l0.577-0.234l-2.194-6.471c4.663-1.87,9.697-3.003,14.963-3.238l0.791,7.868H50h1.293l0.791-7.868   c5.238,0.235,10.248,1.357,14.892,3.21l-2.036,5.758l0.574,0.241l0.573,0.241l2.7-5.471c4.492,2.021,8.607,4.734,12.198,8.018   L76.1,22.073l0.913,0.914l0.914,0.914l5.979-4.887c3.59,3.926,6.505,8.475,8.57,13.463l-6.128,2.926l0.234,0.578l0.234,0.576   l6.402-2.172c1.545,4.26,2.473,8.813,2.684,13.547l-7.7,0.775V50v1.291l7.7,0.775C94.848,75.764,75.764,94.848,52.066,95.902z"/>
<path fill="#fff" d="M53.31,47.561L34.736,18.932c-0.336-0.613-1.104-0.836-1.717-0.5c-0.611,0.336-0.836,1.104-0.5,1.715   l13.592,31.187c0.074,0.219,0.165,0.436,0.28,0.645c1.095,1.992,3.596,2.721,5.588,1.627s2.72-3.595,1.626-5.587   C53.518,47.856,53.416,47.706,53.31,47.561z"/>
</g>
</svg>