<?xml version="1.0" encoding="iso-8859-1"?>
<!-- Generator: Adobe Illustrator 19.0.0, SVG Export Plug-In . SVG Version: 6.00 Build 0)  -->
<svg version="1.1" id="Capa_1" xmlns="http://www.w3.org/2000/svg" xmlns:xlink="http://www.w3.org/1999/xlink" x="0px" y="0px"
	 viewBox="0 0 511.999 511.999" style="enable-background:new 0 0 511.999 511.999;" xml:space="preserve">
<g>
	<g>
		<path d="M136.823,375.167c-17.544-17.545-46.09-17.545-63.635,0c-17.544,17.544-17.544,46.09,0,63.634
			c17.543,17.544,46.09,17.545,63.635,0C154.366,421.257,154.366,392.71,136.823,375.167z M115.612,417.589
			c-5.841,5.842-15.372,5.841-21.212,0c-5.849-5.849-5.849-15.364,0-21.211c5.842-5.842,15.371-5.842,21.211,0
			C121.459,402.225,121.459,411.742,115.612,417.589z"/>
	</g>
</g>
<g>
	<g>
		<path d="M490.007,21.983c-29.309-29.309-76.746-29.312-106.056,0c-17.312,17.312-24.369,41.05-21.182,63.606l-26.761,26.761
			l-6.026-10.042c-4.262-7.103-13.477-9.406-20.578-5.145c-7.103,4.262-9.406,13.475-5.145,20.578l9.883,16.473l-20.558,20.558
			l-6.025-10.042c-4.262-7.103-13.477-9.406-20.578-5.145c-7.103,4.262-9.406,13.475-5.145,20.578l9.883,16.473l-20.558,20.558
			l-6.026-10.042c-4.263-7.103-13.477-9.406-20.578-5.145c-7.103,4.262-9.406,13.475-5.145,20.578l9.883,16.473l-41.27,41.27
			c-16.723-7.966-37.379-5.045-51.205,8.781l-32.895,32.896c-27.641,0.276-53.587,11.162-73.161,30.738
			c-40.936,40.936-40.936,107.544,0,148.48c41.032,41.033,107.444,41.036,148.48,0c20.181-20.181,30.406-46.603,30.688-73.111
			l32.945-32.945c13.827-13.826,16.748-34.482,8.781-51.205l25.361-25.361l6.026,10.042c4.264,7.105,13.479,9.405,20.578,5.145
			c7.103-4.262,9.406-13.475,5.145-20.578l-9.883-16.473l20.558-20.558l6.026,10.042c4.264,7.105,13.479,9.405,20.578,5.145
			c7.103-4.262,9.406-13.475,5.145-20.578l-9.883-16.473l20.558-20.558l6.026,10.042c4.264,7.105,13.479,9.405,20.578,5.145
			c7.103-4.262,9.406-13.475,5.145-20.578l-9.883-16.473l42.638-42.638c22.781,3.207,46.312-3.889,63.637-21.214
			C519.246,98.799,519.246,51.222,490.007,21.983z M158.034,460.012c-29.31,29.309-76.746,29.313-106.057,0
			c-29.24-29.24-29.24-76.817,0-106.057c29.309-29.309,76.746-29.312,106.057,0C187.274,383.195,187.274,430.772,158.034,460.012z
			 M221.669,353.955l-17.779,17.779c-5.053-14.245-13.264-27.611-24.644-38.991c-11.189-11.189-24.46-19.54-38.939-24.695
			l17.728-17.728c5.849-5.847,15.364-5.849,21.212,0l42.422,42.424C227.531,338.606,227.53,348.093,221.669,353.955z
			 M232.274,300.927l-21.211-21.211l34.142-34.142l15.909,26.514L232.274,300.927z M282.978,250.223l-15.909-26.515l20.558-20.558
			l15.909,26.515L282.978,250.223z M325.4,207.799l-15.909-26.514l20.558-20.558l15.909,26.515L325.4,207.799z M367.824,165.377
			l-15.909-26.515l22.496-22.496c2.73,4.127,5.908,8.041,9.539,11.673c3.604,3.604,7.513,6.79,11.664,9.547L367.824,165.377z
			 M468.796,106.828c-17.586,17.586-46.047,17.588-63.635,0c-17.544-17.544-17.544-46.09,0-63.635
			c17.586-17.585,46.047-17.587,63.635,0C486.339,60.737,486.339,89.284,468.796,106.828z"/>
	</g>
</g>
<g>
	<g>
		<circle cx="436.974" cy="75.013" r="14.999"/>
	</g>
</g>
<g>
</g>
<g>
</g>
<g>
</g>
<g>
</g>
<g>
</g>
<g>
</g>
<g>
</g>
<g>
</g>
<g>
</g>
<g>
</g>
<g>
</g>
<g>
</g>
<g>
</g>
<g>
</g>
<g>
</g>
</svg>
