<svg xmlns:dc="http://purl.org/dc/elements/1.1/" xmlns:cc="http://creativecommons.org/ns#" xmlns:rdf="http://www.w3.org/1999/02/22-rdf-syntax-ns#" xmlns:svg="http://www.w3.org/2000/svg" xmlns="http://www.w3.org/2000/svg" xmlns:sodipodi="http://sodipodi.sourceforge.net/DTD/sodipodi-0.dtd" xmlns:inkscape="http://www.inkscape.org/namespaces/inkscape" viewBox="0 0 40 40" version="1.1" x="0px" y="0px">
<g transform="translate(0,-1020.3622)"><path d="m 9.2500013,1028.3622 c -3.739502,0 -6.7500088,3.0195 -6.7500088,6.7697 l 0,2.4608 c 0,3.7502 3.0105068,6.7696 6.7500088,6.7696 l 13.4999797,0 c 3.739502,0 6.750009,-3.0194 6.750009,-6.7696 l 0,-2.4608 c 0,-3.7502 -3.010507,-6.7697 -6.750009,-6.7697 l -3.749971,0 0,4.5 2.464894,0 c 1.681776,0 3.035074,1.3022 3.035074,2.918 l 0,1.1661 c 0,1.6157 -1.353298,2.9159 -3.035074,2.9159 l -10.929712,0 c -1.6818142,0 -3.0351873,-1.3002 -3.0351873,-2.9159 l 0,-1.1661 c 0,-1.6158 1.3533731,-2.918 3.0351873,-2.918 l 2.464818,0 0,-4.5 z m 2.5254047,1.8751 c 0.533593,-0.019 0.507968,0.7996 -0.02268,0.748 l -1.734388,0 c -0.4564909,-0.019 -0.4895239,-0.6824 -0.037795,-0.746 0.011339,-6e-4 0.026457,-6e-4 0.037795,0 l 1.734388,0 c 0.01134,-10e-4 0.01512,0 0.02268,0 z m 10.2305,0 c 0.534198,-0.019 0.510576,0.7989 -0.02268,0.748 l -1.734387,0 c -0.457209,-0.019 -0.492019,-0.6818 -0.03893,-0.746 0.01134,-8e-4 0.02646,-8e-4 0.03893,0 l 1.734387,0 c 0.01134,-10e-4 0.01512,0 0.02268,0 z m -15.0137186,0.746 c 0.4010078,-0.026 0.5575936,0.5103 0.2052283,0.7032 -0.5752062,0.3447 -1.0291275,0.791 -1.3730266,1.3653 -0.2464252,0.4663 -0.9373984,0.053 -0.6425953,-0.3849 0.4045984,-0.6756 0.9486992,-1.2177 1.6250078,-1.6229 0.051024,-0.034 0.1080944,-0.053 0.167811,-0.059 0.011339,-8e-4 0.011339,0 0.018898,0 z m 17.6913996,0 c 0.06198,0 0.122457,0.011 0.177638,0.039 0.846009,0.4059 1.278803,1.0077 1.662123,1.6465 0.256252,0.4274 -0.381203,0.8148 -0.642595,0.3905 -0.366615,-0.6113 -0.650419,-1.0306 -1.335912,-1.3593 -0.355654,-0.1652 -0.251339,-0.6968 0.140598,-0.7149 z m -19.6933018,4.002 c 0.2139212,0 0.388422,0.1709 0.3827905,0.3847 l 0,1.9844 c -0.022677,0.4771 -0.7283905,0.4771 -0.7519747,0 l 0,-1.9844 c -0.011339,-0.2086 0.1606299,-0.3815 0.3692598,-0.3847 z m 22.0039158,0 0,0 c 0.213921,0 0.388498,0.1709 0.382904,0.3847 l 0,1.9844 c 0,0.5028 -0.754016,0.5028 -0.754016,0 l 0,-1.9844 c -0.01134,-0.2086 0.16063,-0.3815 0.36926,-0.3847 z m -0.470702,4.4941 c 0.291024,0.011 0.460611,0.3334 0.30274,0.5781 -0.405921,0.6752 -0.958223,1.2178 -1.632794,1.6231 -0.441108,0.3096 -0.865133,-0.4022 -0.382828,-0.6426 0.573921,-0.3446 1.01983,-0.7983 1.365203,-1.3729 0.06387,-0.1081 0.177638,-0.1769 0.30274,-0.1837 0.01512,0 0.03024,0 0.04498,0 z m -21.046902,0 c 0.1428661,-0.011 0.2777952,0.067 0.3477165,0.1913 0.3446929,0.5745 0.7906015,1.0205 1.365203,1.3652 0.4823055,0.2404 0.057827,0.9522 -0.3827905,0.6426 -0.6754771,-0.4053 -1.2198046,-0.9476 -1.6250077,-1.6231 -0.1542048,-0.2415 0.011338,-0.5598 0.2948031,-0.5761 z m 6.298809,2.2579 c 0.550488,-0.038 0.523691,0.8172 -0.02268,0.746 l -1.734388,0 c -0.4446988,-0.03 -0.4767113,-0.6711 -0.037795,-0.7442 0.011339,-6e-4 0.026457,-6e-4 0.037795,0 l 1.734388,0 c 0.01134,-9e-4 0.01512,0 0.02268,0 z m 5.123073,0 c 0.550413,-0.038 0.523503,0.8174 -0.02268,0.746 l -1.747993,0 c -0.445304,-0.026 -0.479093,-0.6704 -0.03893,-0.7442 0.01134,-7e-4 0.02646,-7e-4 0.03893,0 l 1.747993,0 c 0.01134,-9e-4 0.01512,0 0.02268,0 z m 5.107427,0 c 0.55079,-0.039 0.526072,0.8163 -0.02268,0.746 l -1.734387,0 c -0.445304,-0.026 -0.479017,-0.6704 -0.03893,-0.7442 0.01134,-7e-4 0.02646,-7e-4 0.03893,0 l 1.734387,0 c 0.01134,-7e-4 0.01512,0 0.02268,0 z" style="opacity:1;fill:#fff;fill-opacity:1;stroke:none;stroke-width:0.26458332;stroke-linecap:round;stroke-linejoin:round;stroke-miterlimit:4;stroke-dasharray:none;stroke-dashoffset:0;stroke-opacity:1"/>
<path d="m 16.498038,1028.3622 0,1.752 1.498016,0 0,-1.752 z" style="opacity:1;fill:#fff;fill-opacity:1;stroke:none;stroke-width:0.26458332;stroke-linecap:round;stroke-linejoin:round;stroke-miterlimit:4;stroke-dasharray:none;stroke-dashoffset:0;stroke-opacity:1"/>
<path d="m 14.003966,1028.3622 0,1.752 1.497978,0 0,-1.752 z" style="opacity:1;fill:#fff;fill-opacity:1;stroke:none;stroke-width:0.26458332;stroke-linecap:round;stroke-linejoin:round;stroke-miterlimit:4;stroke-dasharray:none;stroke-dashoffset:0;stroke-opacity:1"/>
<path style="opacity:1;fill:#fff;fill-opacity:1;stroke:none;stroke-width:0.26458332;stroke-linecap:round;stroke-linejoin:round;stroke-miterlimit:4;stroke-dasharray:none;stroke-dashoffset:0;stroke-opacity:1" d="m 16.498038,1031.1103 0,1.7519 1.498016,0 0,-1.7519 z"/>
<path d="m 14.003966,1031.1103 0,1.7519 1.497978,0 0,-1.7519 z" style="opacity:1;fill:#fff;fill-opacity:1;stroke:none;stroke-width:0.26458332;stroke-linecap:round;stroke-linejoin:round;stroke-miterlimit:4;stroke-dasharray:none;stroke-dashoffset:0;stroke-opacity:1"/>
</g>
</svg>