<svg xmlns:dc="http://purl.org/dc/elements/1.1/" xmlns:cc="http://creativecommons.org/ns#" xmlns:rdf="http://www.w3.org/1999/02/22-rdf-syntax-ns#" xmlns:svg="http://www.w3.org/2000/svg" xmlns="http://www.w3.org/2000/svg" xmlns:sodipodi="http://sodipodi.sourceforge.net/DTD/sodipodi-0.dtd" xmlns:inkscape="http://www.inkscape.org/namespaces/inkscape" viewBox="0 0 12.7 15.875" version="1.1" x="0px" y="0px">
<g transform="translate(0,-284.29999)">
<path style="" d="m 7.0987793,289.02851 a 0.10234663,0.10234663 0 0 0 -0.010319,5.3e-4 0.10234663,0.10234663 0 0 0 -0.094059,0.0966 v 0.64802 a 0.29241885,0.29241885 0 0 0 -0.190156,0.12919 l -0.3080015,0.48266 A 0.29241885,0.29241885 0 0 1 6.249758,290.52039 H 5.1366294 l -0.3224477,-0.32246 a 0.14620944,0.14620944 0 0 0 -0.1519238,-0.0341 l -1.0221648,0.3607 a 1.0296154,1.0296154 0 0 0 -1.3239485,-0.13074 l -1.67949559,1.15962 a 0.248556,0.248556 0 0 0 0.14107583,0.4532 H 2.21174 a 1.0296154,1.0296154 0 0 0 1.3787438,0 h 6.3954818 a 1.0296154,1.0296154 0 0 0 1.6882534,-0.52038 l 0.496623,-0.4501 v -1.79731 h -1.598348 v 0.97824 a 1.0296154,1.0296154 0 0 0 -0.562769,0.23771 l -2.8106686,-0.65991 v -0.66921 a 0.10234663,0.10234663 0 0 0 -0.1002506,-0.0971 z m 3.6783167,0.41548 h 1.189064 v 1.50119 l -0.263551,0.23927 a 1.0296154,1.0296154 0 0 0 -0.925513,-0.96739 z m -3.7661848,0.51676 2.8370477,0.66663 a 1.0296154,1.0296154 0 0 0 -0.0372,1.17408 H 3.764606 a 1.0296154,1.0296154 0 0 0 0.00979,-1.10742 l 0.921385,-0.32505 0.3570817,0.35605 h 1.1978746 a 0.49711207,0.49711207 0 0 0 0.4190999,-0.22944 v 0 z m -4.1325535,0.45475 a 0.82500114,0.82500114 0 0 1 0.8474869,0.82579 0.82501051,0.82501051 0 0 1 -1.650021,0 0.82500114,0.82500114 0 0 1 0.8025341,-0.82579 z m 7.7731673,0 a 0.82500114,0.82500114 0 0 1 0.848016,0.82579 0.82502375,0.82502375 0 1 1 -1.6500475,0 0.82500114,0.82500114 0 0 1 0.8020315,-0.82579 z m -8.7265933,0.49713 a 1.0296154,1.0296154 0 0 0 0.1121304,0.88883 H 0.77719567 a 0.04386283,0.04386283 0 0 1 -0.0243417,-0.0796 z" fill="#FFF" stroke="none"/>
</g></svg>