<svg xmlns="http://www.w3.org/2000/svg" xmlns:xlink="http://www.w3.org/1999/xlink" version="1.1" x="0px" y="0px" viewBox="0 0 100 100" enable-background="new 0 0 100 100" xml:space="preserve" fill='#fff'>
<g>
<path d="M78.42,47.982l-23.26-3.79v-3.019c0-0.084-0.369-4.558-1.493-8.744h8.549c0.829,0,1.5-0.671,1.5-1.5s-0.671-1.5-1.5-1.5   H52.68c-0.972-2.394-2.289-4.199-4.054-4.199c-1.786,0-3.076,1.805-4.004,4.199h-9.294c-0.829,0-1.5,0.671-1.5,1.5   s0.671,1.5,1.5,1.5h8.365c-1.039,4.186-1.309,8.66-1.309,8.744v2.975l-23.527,3.834c-2.644,0.053-4.697,1.737-4.697,3.876v5.812   c0,2.174,2.12,3.878,4.826,3.878h23.472c0.171,2.676,0.631,6.213,1.271,9.79l-8.215,7.286v4.721h10.747   c0.26,0,0.5-0.072,0.714-0.188c0.755,1.282,1.377,1.283,1.902,1.283c0.541,0,1.146-0.004,1.857-1.201   c0.17,0.067,0.354,0.106,0.547,0.106h10.747v-4.721l-8.156-7.234c0.612-3.596,1.052-7.157,1.216-9.842h23.202   c2.706,0,4.826-1.704,4.826-3.878v-5.812C83.117,49.719,81.064,48.035,78.42,47.982z M66.294,58.549H55.16v-0.628h11.134V58.549z    M52.16,55.623c0,1.77-2.418,4.417-3.283,4.511c-0.896-0.08-3.492-2.77-3.492-4.511v-9.23c0.186-0.552,1.275-2.81,3.242-2.81   c2.003,0,3.289,2.268,3.534,2.853V55.623z M42.385,58.549h-11.4v-0.628h11.4V58.549z M45.456,61.432   c1.105,1.017,2.343,1.702,3.422,1.702c1.011,0,2.166-0.64,3.209-1.603c-0.228,3.68-0.98,8.648-1.815,12.758v-3.38   c0-0.829-0.671-1.5-1.5-1.5s-1.5,0.671-1.5,1.5v2.905C46.427,69.759,45.679,64.976,45.456,61.432z M48.631,28.265   c0.276,0.172,0.556,0.595,0.833,1.165h-1.625C48.098,28.863,48.364,28.441,48.631,28.265z M50.534,32.429   c0.91,3.211,1.601,7.297,1.626,8.744v0.61c-0.968-0.703-2.149-1.2-3.534-1.2c-1.285,0-2.361,0.42-3.242,1.034v-0.442   c0.012-1.487,0.619-5.55,1.453-8.745H50.534z M17.161,57.671v-5.812c0-0.31,0.693-0.878,1.826-0.878l23.398-3.793v7.734h-14.4   v3.628h-8.998C17.854,58.549,17.161,57.98,17.161,57.671z M38.516,80.345v-0.372l5.882-5.217c0.511,2.416,0.981,4.228,1.417,5.588   H38.516z M59.029,80.345h-7.127c0.411-1.346,0.854-3.133,1.332-5.512l5.795,5.14V80.345z M80.117,57.671   c0,0.31-0.693,0.878-1.826,0.878h-8.997v-3.628H55.16v-7.689l22.89,3.729l0.241,0.02c1.133,0,1.826,0.568,1.826,0.878V57.671z"/>
<path d="M36.996,19.522l2.982-3.123l-4.661,0.109c3.706-2.74,8.148-4.389,12.786-4.672c7.18-0.438,14.131,2.344,19.036,7.634   c0.296,0.319,0.698,0.48,1.101,0.48c0.365,0,0.731-0.132,1.02-0.4c0.607-0.563,0.643-1.513,0.08-2.12   c-5.518-5.95-13.325-9.08-21.418-8.588c-5.549,0.338-10.86,2.401-15.178,5.846l-0.121-5.314l-2.982,3.124l0.167,7.19L36.996,19.522   z"/>
</g>
</svg>