<svg xmlns="http://www.w3.org/2000/svg" data-name="Layer 1" viewBox="0 0 150 150" x="0px" y="0px">
<path d="M76,52.14A32.12,32.12,0,0,1,70.63,64l23,23a4.91,4.91,0,0,1-6.95,6.95l-23-23a32.38,32.38,0,0,1-42-3.21l-.42-.44,7-7c.14.15.26.3.4.45a22.64,22.64,0,1,0-5.35-23.28L12.37,48.41A32.35,32.35,0,1,1,76,52.14ZM94.61,4.63H75.46a4.91,4.91,0,1,0,0,9.82h7.29l-8.26,8.26a37,37,0,0,1,4.9,9L89.7,21.4v7.29a4.91,4.91,0,1,0,9.82,0V9.54A4.91,4.91,0,0,0,94.61,4.63ZM8.87,72.74,35.74,45.87,47,57.13a4.91,4.91,0,0,0,6.95,0l7.55-7.55a17.54,17.54,0,0,0-1.23-12.66l-9.79,9.79L39.22,35.45a4.91,4.91,0,0,0-6.95,0L1.92,65.8a4.91,4.91,0,0,0,6.95,6.95Z" fill="#fff" fill-opacity="1" stroke="none"/>
</svg>