<svg xmlns="http://www.w3.org/2000/svg" xmlns:xlink="http://www.w3.org/1999/xlink" version="1.1" x="0px" y="0px" viewBox="0 0 100 125" enable-background="new 0 0 100 100" xml:space="preserve">
<g>
<path d="M10.001,94.91c-1.389,0-2.763-0.481-3.866-1.411c-1.78-1.5-2.533-3.894-1.93-6.142L9.88,66.177   C6.024,60.065,4,53.179,4,46.09c0-22.607,20.636-41,46-41s46,18.393,46,41s-20.636,41-46,41c-5.574,0-10.99-0.87-16.136-2.589   l-21.349,9.856C11.711,94.729,10.854,94.91,10.001,94.91z M21.126,61.388c0.108,0.139,0.209,0.282,0.306,0.431   c0.916,1.423,1.191,3.167,0.753,4.801l-3.075,11.477l11.966-5.524c1.488-0.688,3.191-0.735,4.715-0.135   C40.257,74.197,45.038,75.09,50,75.09c18.748,0,34-13.01,34-29s-15.252-29-34-29s-34,13.01-34,29   C16,51.515,17.772,56.801,21.126,61.388z" fill='#FFF'/>
</g>
<g>
<g>
<g>
<path d="M51,60.59H37c-3.313,0-6-2.687-6-6s2.687-6,6-6h14c3.313,0,6,2.687,6,6S54.313,60.59,51,60.59z" fill='#FFF'/>
</g>
</g>
<g>
<g>
<path d="M65,43.59H37c-3.313,0-6-2.687-6-6s2.687-6,6-6h28c3.313,0,6,2.687,6,6S68.313,43.59,65,43.59z" fill='#FFF'/>
</g>
</g>
</g>
</svg>