<svg xmlns:dc="http://purl.org/dc/elements/1.1/" xmlns:cc="http://creativecommons.org/ns#" xmlns:rdf="http://www.w3.org/1999/02/22-rdf-syntax-ns#" xmlns:svg="http://www.w3.org/2000/svg" xmlns="http://www.w3.org/2000/svg" xmlns:sodipodi="http://sodipodi.sourceforge.net/DTD/sodipodi-0.dtd" xmlns:inkscape="http://www.inkscape.org/namespaces/inkscape" version="1.1" x="0px" y="0px" viewBox="0 0 150 150"><g transform="translate(0,-952.36218)">
<path style="text-indent:0;text-transform:none;direction:ltr;block-progression:tb;baseline-shift:baseline;color:#fff;enable-background:accumulate;" d="m 81.9688,952.36217 c 8.751,0 16.0312,6.8716 16.0312,16 0,2.2288 -0.4975,5.1226 -1.25,7.1562 -4.2905,9.2221 -8.6236,18.4629 -12.9375,27.68753 -0.3198,0.6852 -1.0563,1.1563 -1.8125,1.1563 l -25.9999,0 c -5.0206,0 -9,3.9794 -9,9 0,5.0206 3.9794,9 9,9 l 12.9999,0 c 8.2755,0 15,6.7246 15,15 0,8.2755 -6.7245,15 -15,15 l -49,0 c -0.7562,0 -1.4927,-0.4711 -1.8125,-1.1562 -4.8684,-10.3873 -9.9557999,-20.7004 -14.7812999,-31.0938 -0.8215,-2.186 -1.4062,-5.283 -1.4062,-7.75 0,-10.1565 8.1534999,-18.00003 18.0311999,-18.00003 9.8779,0 17.9688,7.84943 17.9688,18.00003 0,2.4687 -0.591,5.5693 -1.4062,7.75 -4.4556,9.412 -8.9562,18.8342 -13.4376,28.25 l 45.8438,0 c 6.1287,0 11,-4.8713 11,-11 0,-6.1286 -4.8713,-11 -11,-11 l -12.9999,0 c -7.1674,0 -13,-5.8326 -13,-13 0,-7.1674 5.8326,-13 13,-13 l 22.8437,0 C 74.9899,992.07577 71.037,983.81857 67.25,975.51837 c -0.7463,-2.028 -1.25,-4.9257 -1.25,-7.1562 0,-9.1227 7.2175,-16 15.9688,-16 z m 0,4 c -6.7142,0 -11.9688,4.9367 -11.9688,12 0,1.4789 0.5449,4.4965 1,5.75 3.6437,7.8367 7.3299,15.6698 11,23.5 3.5832,-7.8693 7.293,-15.4787 11,-23.5 0.456,-1.2491 1,-4.2678 1,-5.75 0,-7.0576 -5.3174,-12 -12.0312,-12 z m 0.031,5 c 3.8422,0 7,3.1577 7,7 0,3.8423 -3.1578,7 -7,7 -3.8423,0 -7,-3.1577 -7,-7 0,-3.8423 3.1577,-7 7,-7 z m 0,4 c -1.6805,0 -3,1.3195 -3,3 0,1.6805 1.3195,3 3,3 1.6804,0 3,-1.3196 3,-3 0,-1.6805 -1.3196,-3 -3,-3 z m -61.9688,33 c -7.797,0 -14.0311999,5.94733 -14.0311999,14.00003 0,1.7084 0.5977,4.8113 1.1562,6.3125 4.2582999,9.0035 8.5590999,18.0032 12.8437999,27 4.1965,-9.0373 8.6833,-18.1483 12.8438,-27 0.5574,-1.5053 1.1564,-4.6076 1.1564,-6.3125 0,-8.0586 -6.1716,-14.00003 -13.9688,-14.00003 z M 20,1003.3622 c 4.9468,0 9,4.0531 9,9 0,4.9468 -4.0532,9 -9,9 -4.9469,0 -9,-4.0532 -9,-9 0,-4.9469 4.0531,-9 9,-9 z m 0,4 c -2.7851,0 -5,2.2149 -5,5 0,2.785 2.2149,5 5,5 2.785,0 5,-2.215 5,-5 0,-2.7851 -2.215,-5 -5,-5 z" fill="#fff" fill-opacity="1" stroke="none" marker="none" visibility="visible" display="inline" overflow="visible"/>
</g>
</svg>