<svg xmlns="http://www.w3.org/2000/svg" xmlns:xlink="http://www.w3.org/1999/xlink" version="1.1" x="0px" y="0px" viewBox="0 0 135 135" enable-background="new 0 0 100 100" xml:space="preserve">
<g>
<path d="M89.668,64.222l-27.027-7.264c-0.775-0.209-1.547-0.246-2.302-0.195c-1.233-0.088-2.497,0.1-3.711,0.654l-19.53,9.1   L29.02,47.56c-1.547-3.654-5.773-5.355-9.426-3.797c-3.662,1.559-5.354,5.772-3.811,9.437l10.959,25.748   c0.013,0.015,0.013,0.021,0.022,0.031c0.023,0.074,0.037,0.16,0.073,0.246c0.581,1.256,1.509,2.232,2.602,2.934   c0.012,0.009,0.012,0.015,0.012,0.021c0.334,0.195,0.669,0.369,1.027,0.52c0.098,0.043,0.186,0.088,0.271,0.123   c0.284,0.111,0.567,0.189,0.864,0.263c0.175,0.051,0.348,0.094,0.521,0.125c0.26,0.049,0.531,0.062,0.807,0.079   c0.187,0.013,0.383,0.035,0.58,0.029c0.334-0.008,0.683-0.059,1.024-0.104c0.101-0.021,0.198-0.023,0.298-0.043   c0.594-0.123,1.176-0.277,1.743-0.546l24.194-11.264l25.16,6.754c3.836,1.039,7.778-1.235,8.809-5.063   C95.777,69.206,93.516,65.261,89.668,64.222z" fill='#FFF'/>
<path d="M22.934,33.503c-3.66,4.276-10.104,4.771-14.371,1.108c-4.279-3.666-4.766-10.1-1.113-14.372   c3.66-4.273,10.095-4.771,14.373-1.104C26.087,22.801,26.596,29.236,22.934,33.503z" fill='#FFF'/>
</g>
</svg>