<svg xmlns:dc="http://purl.org/dc/elements/1.1/" xmlns:cc="http://creativecommons.org/ns#" xmlns:rdf="http://www.w3.org/1999/02/22-rdf-syntax-ns#" xmlns:svg="http://www.w3.org/2000/svg" xmlns="http://www.w3.org/2000/svg" xmlns:sodipodi="http://sodipodi.sourceforge.net/DTD/sodipodi-0.dtd" xmlns:inkscape="http://www.inkscape.org/namespaces/inkscape" version="1.1" x="0px" y="0px" viewBox="0 0 100 125">
<g transform="translate(0,-952.36218)"><path style="font-size:medium;font-style:normal;font-variant:normal;font-weight:normal;font-stretch:normal;text-indent:0;text-align:start;text-decoration:none;line-height:normal;letter-spacing:normal;word-spacing:normal;text-transform:none;direction:ltr;block-progression:tb;writing-mode:lr-tb;text-anchor:start;baseline-shift:baseline;opacity:1;color:#FFF;fill:#FFF;fill-opacity:1;stroke:none;stroke-width:6;marker:none;visibility:visible;display:inline;overflow:visible;enable-background:accumulate;font-family:Sans;-inkscape-font-specification:Sans" d="m 69.65625,10 c -0.669404,0.0804 -1.308472,0.394327 -1.78125,0.875 l -52,52 c -0.39736,0.391188 -0.682299,0.89531 -0.8125,1.4375 l -5,22 c -0.2252824,0.984925 0.0888,2.076082 0.803234,2.790516 0.714434,0.714433 1.805591,1.028516 2.790516,0.803234 l 22,-5 c 0.553178,-0.124738 1.069137,-0.410162 1.46875,-0.8125 l 52,-52 c 1.096431,-1.109033 1.096431,-3.109717 0,-4.21875 l -17,-17 C 71.490572,10.231735 70.554169,9.899845 69.65625,10 z M 70,17.21875 82.75,30 77,35.75 64.25,23 z m -10,10 L 72.75,40 36,76.75 23.25,64 z M 20.09375,69.3125 30.6875,79.90625 17,83 z" transform="translate(0,952.36218)"/>
</g>
</svg>