<svg xmlns="http://www.w3.org/2000/svg" viewBox="0 0 40 40" x="0px" y="0px" fill='#fff'>
<g data-name="11-engine">
<path d="M3,23a1,1,0,0,1-1-1V14a1,1,0,0,1,2,0v8A1,1,0,0,1,3,23Z"/>
<path d="M6,19H3a1,1,0,0,1,0-2H6a1,1,0,0,1,0,2Z"/>
<path d="M22,27H12a1,1,0,0,1-.8-.4L8.5,23H6a1,1,0,0,1-1-1V13a1,1,0,0,1,1-1H8V10A1,1,0,0,1,9,9H19a1,1,0,0,1,.78.38L23.48,14H24V12a1,1,0,0,1,1-1h2a3,3,0,0,1,3,3v8a3,3,0,0,1-3,3H25a1,1,0,0,1-1-1V22H23v4A1,1,0,0,1,22,27Zm-9.5-2H21V21a1,1,0,0,1,1-1h3a1,1,0,0,1,1,1v2h1a1,1,0,0,0,1-1V14a1,1,0,0,0-1-1H26v2a1,1,0,0,1-1,1H23a1,1,0,0,1-.78-.38L18.52,11H10v2a1,1,0,0,1-1,1H7v7H9a1,1,0,0,1,.8.4Z"/>
<path d="M18,7H10a1,1,0,0,1,0-2h8a1,1,0,0,1,0,2Z"/>
<path d="M14,11a1,1,0,0,1-1-1V6a1,1,0,0,1,2,0v4A1,1,0,0,1,14,11Z"/>
</g>
</svg>