<svg xmlns="http://www.w3.org/2000/svg" xmlns:xlink="http://www.w3.org/1999/xlink" xmlns:sketch="http://www.bohemiancoding.com/sketch/ns" viewBox="0 0 220 220" version="1.1" x="0px" y="0px">
<g stroke="none" stroke-width="1" fill="none" fill-rule="evenodd" sketch:type="MSPage"><path d="M73.0781149,61.3459009 L96.0366967,85.1202083 C98.7274531,87.9065681 98.6462225,92.3502486 95.8679159,95.0332281 C93.0839445,97.721678 88.6531339,97.6499001 85.9550445,94.8559467 L63.5120566,71.6155524 C56.8793024,76.5982437 48.638602,79.5501601 39.70958,79.5501601 C17.7785846,79.5501601 0,61.7422501 0,39.77508 C0,17.8079099 17.7785846,0 39.70958,0 C61.6405755,0 79.41916,17.8079099 79.41916,39.77508 C79.41916,47.7259485 77.0901139,55.1319418 73.0781149,61.3459009 Z M39.70958,67.8516071 C55.1902827,67.8516071 67.7398718,55.2813178 67.7398718,39.77508 C67.7398718,24.2688423 55.1902827,11.6985529 39.70958,11.6985529 C24.2288773,11.6985529 11.6792882,24.2688423 11.6792882,39.77508 C11.6792882,55.2813178 24.2288773,67.8516071 39.70958,67.8516071 L39.70958,67.8516071 Z" fill="#FFF" sketch:type="MSShapeGroup"/>
</g>
</svg>