<svg xmlns="http://www.w3.org/2000/svg" data-name="Layer 1" viewBox="0 0 140 140" x="0px" y="0px">
<path d="M17.61,29.14,30.35,16.4a8.25,8.25,0,1,1,16.22,0L59.33,29.13a8.33,8.33,0,0,1,4.45,0L76.52,16.4a8.16,8.16,0,0,1-.15-1.53,8.26,8.26,0,1,1,8.26,8.25,8.17,8.17,0,0,1-2.88-.52L69.49,34.85a8.26,8.26,0,1,1-15.89,0L41.37,22.59a8.23,8.23,0,0,1-5.79,0L23.32,34.85a8.25,8.25,0,1,1-5.71-5.71ZM93,81.36H7a6,6,0,0,0,0,12H93a6,6,0,0,0,0-12ZM34.77,34.67A3.81,3.81,0,0,0,31,38.48V75.22H46V38.48a3.81,3.81,0,0,0-3.81-3.81Zm52.19,0H79.58a3.81,3.81,0,0,0-3.81,3.81V75.22h15V38.48A3.81,3.81,0,0,0,87,34.67ZM64.32,52.17H56.94A3.81,3.81,0,0,0,53.12,56V75.22h15V56A3.81,3.81,0,0,0,64.32,52.17Zm-52.19-1.6a3.81,3.81,0,0,0-3.81,3.81V75.22h15V54.38a3.81,3.81,0,0,0-3.81-3.81Z" fill="#fff" fill-opacity="1" stroke="none"/>
</svg>