<svg xmlns="http://www.w3.org/2000/svg" xmlns:xlink="http://www.w3.org/1999/xlink" xmlns:serif="http://www.serif.com/" viewBox="0 0 60 68" width="20px" height="20px" version="1.1" xml:space="preserve" fill-rule="evenodd" clip-rule="evenodd" stroke-linejoin="round"  transform="scale(-1,1)">
<g >
<path d="M62.941,52.294C62.956,52.26 62.969,52.226 62.981,52.192C62.983,52.157 62.984,52.123 62.982,52.088C62.985,52.058 63,52.031 63,52C63,51.969 62.985,51.942 62.982,51.912C62.984,51.877 62.983,51.843 62.981,51.808C62.969,51.774 62.956,51.74 62.941,51.707C62.923,51.647 62.899,51.589 62.87,51.534C62.855,51.506 62.85,51.474 62.833,51.447L62.832,51.445C62.814,51.418 62.785,51.404 62.765,51.379C62.722,51.326 62.674,51.277 62.621,51.235C62.596,51.215 62.582,51.186 62.555,51.168L62.553,51.167L62.548,51.164L59.555,49.168C59.392,49.062 59.202,49.005 59.008,49.005C58.459,49.005 58.008,49.456 58.008,50.005C58.008,50.336 58.172,50.646 58.445,50.832L58.697,51L55,51C55,50.451 54.549,50 54,50C53.451,50 53,50.451 53,51L49,51C49,50.451 48.549,50 48,50C47.451,50 47,50.451 47,51L43,51C43,50.451 42.549,50 42,50C41.451,50 41,50.451 41,51L37,51C37,50.451 36.549,50 36,50C35.451,50 35,50.451 35,51L31,51C31,50.451 30.549,50 30,50C29.451,50 29,50.451 29,51L25,51C25,50.451 24.549,50 24,50C23.451,50 23,50.451 23,51L19,51C19,50.451 18.549,50 18,50C17.451,50 17,50.451 17,51L13,51L13,47C13.549,47 14,46.549 14,46C14,45.451 13.549,45 13,45L13,41C13.549,41 14,40.549 14,40C14,39.451 13.549,39 13,39L13,35C13.549,35 14,34.549 14,34C14,33.451 13.549,33 13,33L13,29C13.549,29 14,28.549 14,28C14,27.451 13.549,27 13,27L13,23C13.549,23 14,22.549 14,22C14,21.451 13.549,21 13,21L13,17C13.549,17 14,16.549 14,16C14,15.451 13.549,15 13,15L13,11C13.549,11 14,10.549 14,10C14,9.451 13.549,9 13,9L13,5.303L13.168,5.555C13.354,5.828 13.664,5.992 13.995,5.992C14.544,5.992 14.995,5.541 14.995,4.992C14.995,4.798 14.938,4.608 14.832,4.445L12.836,1.452L12.833,1.447L12.832,1.445C12.814,1.418 12.785,1.403 12.765,1.378C12.722,1.326 12.674,1.278 12.622,1.235C12.597,1.215 12.582,1.186 12.555,1.168L12.554,1.168C12.527,1.15 12.493,1.145 12.464,1.129C12.41,1.101 12.354,1.078 12.295,1.06C12.261,1.044 12.226,1.031 12.191,1.019C12.156,1.017 12.122,1.016 12.087,1.018C12.057,1.015 12.031,1 12,1C11.969,1 11.943,1.015 11.913,1.018C11.878,1.016 11.843,1.017 11.808,1.019C11.773,1.031 11.737,1.044 11.703,1.06C11.584,1.096 11.473,1.156 11.377,1.236C11.325,1.278 11.278,1.326 11.236,1.378C11.215,1.403 11.186,1.418 11.168,1.445L11.167,1.447L11.164,1.452L9.168,4.445C9.055,4.611 8.995,4.807 8.995,5.008C8.995,5.556 9.446,6.008 9.995,6.008C10.332,6.008 10.647,5.837 10.832,5.555L11,5.303L11,9C10.451,9 10,9.451 10,10C10,10.549 10.451,11 11,11L11,15C10.451,15 10,15.451 10,16C10,16.549 10.451,17 11,17L11,21C10.451,21 10,21.451 10,22C10,22.549 10.451,23 11,23L11,27C10.451,27 10,27.451 10,28C10,28.549 10.451,29 11,29L11,33C10.451,33 10,33.451 10,34C10,34.549 10.451,35 11,35L11,39C10.451,39 10,39.451 10,40C10,40.549 10.451,41 11,41L11,45C10.451,45 10,45.451 10,46C10,46.549 10.451,47 11,47L11,51L7,51C7,50.451 6.549,50 6,50C5.451,50 5,50.451 5,51L2,51C1.451,51 1,51.451 1,52C1,52.549 1.451,53 2,53L5,53C5,53.549 5.451,54 6,54C6.549,54 7,53.549 7,53L11,53L11,57C10.451,57 10,57.451 10,58C10,58.549 10.451,59 11,59L11,62C11,62.549 11.451,63 12,63C12.549,63 13,62.549 13,62L13,59C13.549,59 14,58.549 14,58C14,57.451 13.549,57 13,57L13,53L17,53C17,53.549 17.451,54 18,54C18.549,54 19,53.549 19,53L23,53C23,53.549 23.451,54 24,54C24.549,54 25,53.549 25,53L29,53C29,53.549 29.451,54 30,54C30.549,54 31,53.549 31,53L35,53C35,53.549 35.451,54 36,54C36.549,54 37,53.549 37,53L41,53C41,53.549 41.451,54 42,54C42.549,54 43,53.549 43,53L47,53C47,53.549 47.451,54 48,54C48.549,54 49,53.549 49,53L53,53C53,53.549 53.451,54 54,54C54.549,54 55,53.549 55,53L58.697,53L58.445,53.168C58.163,53.353 57.992,53.668 57.992,54.005C57.992,54.554 58.444,55.005 58.992,55.005C59.193,55.005 59.389,54.945 59.555,54.832L62.555,52.832C62.566,52.825 62.572,52.812 62.582,52.804C62.62,52.778 62.656,52.75 62.69,52.719C62.706,52.704 62.718,52.686 62.733,52.669C62.769,52.634 62.802,52.596 62.832,52.555L62.833,52.554C62.85,52.527 62.855,52.494 62.87,52.466C62.899,52.411 62.923,52.353 62.941,52.293Z" style="" fill-rule="nonzero" fill="#fff"/>
<path d="M52,45C52.549,45 53,44.549 53,44C53,43.451 52.549,43 52,43C35.001,42.981 21.019,28.999 21,12C21,11.451 20.549,11 20,11C19.451,11 19,11.451 19,12C19.02,30.096 33.904,44.98 52,45Z" style="" fill-rule="nonzero" fill="#fff"/>
</g>
</svg>