<svg xmlns:dc="http://purl.org/dc/elements/1.1/" xmlns:cc="http://creativecommons.org/ns#" xmlns:rdf="http://www.w3.org/1999/02/22-rdf-syntax-ns#" xmlns:svg="http://www.w3.org/2000/svg" xmlns="http://www.w3.org/2000/svg" xmlns:sodipodi="http://sodipodi.sourceforge.net/DTD/sodipodi-0.dtd" xmlns:inkscape="http://www.inkscape.org/namespaces/inkscape" viewBox="0 0 12 12" version="1.1" x="0px" y="0px">
<svg:g>
<svg:path style="color:#FFF;font-style:normal;font-variant:normal;font-weight:normal;font-stretch:normal;font-size:medium;line-height:normal;font-family:sans-serif;font-variant-ligatures:normal;font-variant-position:normal;font-variant-caps:normal;font-variant-numeric:normal;font-variant-alternates:normal;font-feature-settings:normal;text-indent:0;text-align:start;text-decoration:none;text-decoration-line:none;text-decoration-style:solid;text-decoration-color:#FFF;letter-spacing:normal;word-spacing:normal;text-transform:none;writing-mode:lr-tb;direction:ltr;text-orientation:mixed;dominant-baseline:auto;baseline-shift:baseline;text-anchor:start;white-space:normal;shape-padding:0;clip-rule:nonzero;display:inline;overflow:visible;visibility:visible;opacity:1;isolation:auto;mix-blend-mode:normal;color-interpolation:sRGB;color-interpolation-filters:linearRGB;solid-color:#FFF;solid-opacity:1;vector-effect:none;fill:#FFF;fill-opacity:1;fill-rule:nonzero;stroke:none;stroke-width:0.5291667;stroke-linecap:round;stroke-linejoin:round;stroke-miterlimit:4;stroke-dasharray:none;stroke-dashoffset:0;stroke-opacity:1;color-rendering:auto;image-rendering:auto;shape-rendering:auto;text-rendering:auto;enable-background:accumulate" d="m 0.87281455,1.8505764 a 0.26460981,0.26460981 0 0 0 -0.0289388,5.17e-4 0.26460981,0.26460981 0 0 0 -0.21135657,0.129191 C 0.21818803,2.6571974 -3.4354166e-7,3.4366244 -3.4354166e-7,4.2302764 c 0,0.79377 0.22013862354166,1.570943 0.63458644354166,2.247924 A 0.26460981,0.26460981 0 1 0 1.0857213,6.2027654 C 0.7221698,5.6089084 0.52916632,4.9265684 0.52916632,4.2302764 c 0,-0.696189 0.1931064,-1.379221 0.55655498,-1.973007 A 0.26460981,0.26460981 0 0 0 0.87281455,1.8505764 Z m 6.74274085,0 a 0.26460981,0.26460981 0 0 0 -0.027906,5.17e-4 0.26460981,0.26460981 0 0 0 -0.2067058,0.406176 C 7.7443938,2.8510554 7.9375,3.5340874 7.9375,4.2302764 c 0,0.696292 -0.193003,1.378644 -0.5565564,1.972489 a 0.26460981,0.26460981 0 1 0 0.4511358,0.275435 c 0.4144486,-0.676981 0.6345872,-1.454154 0.6345872,-2.247924 0,-0.793652 -0.2181886,-1.573079 -0.6325208,-2.249992 A 0.26460981,0.26460981 0 0 0 7.6155554,1.8505764 Z m -1.0040726,0.49661 a 0.26460981,0.26460981 0 0 0 -0.2191094,0.413929 c 0.286721,0.436068 0.4397666,0.947275 0.4397666,1.469161 0,0.521913 -0.1530165,1.032561 -0.4397666,1.468644 a 0.26460981,0.26460981 0 1 0 0.441317,0.288871 c 0.3434954,-0.522381 0.5276162,-1.132319 0.5276162,-1.757515 0,-0.625164 -0.1841552,-1.237735 -0.5276162,-1.7601 a 0.26460981,0.26460981 0 0 0 -0.2222076,-0.12299 z m -4.7656011,0.0021 a 0.26460981,0.26460981 0 0 0 -0.2129068,0.120923 c -0.3434601,0.522365 -0.5276165,1.134936 -0.5276165,1.7601 0,0.625196 0.1841225,1.235134 0.5276165,1.757515 A 0.26460981,0.26460981 0 1 0 2.0742917,5.6989204 C 1.7875426,5.2628374 1.6345261,4.7521894 1.6345251,4.2302764 c 10e-7,-0.521886 0.1530464,-1.033093 0.4397666,-1.469161 a 0.26460981,0.26460981 0 0 0 -0.22841,-0.411862 z m 0.9973553,0.478008 a 0.26608082,0.26608082 0 0 0 -0.026872,5.16e-4 0.26608082,0.26608082 0 0 0 -0.197404,0.107487 c -0.2829999,0.371787 -0.4356322,0.827771 -0.4356322,1.295012 0,0.467353 0.1545743,0.921111 0.4376994,1.292944 A 0.26608082,0.26608082 0 1 0 3.042708,5.2007594 C 2.8300848,4.9215184 2.7145627,4.5812514 2.7145624,4.2302764 c 0,-0.350892 0.1156166,-0.693861 0.3281456,-0.973068 A 0.26608082,0.26608082 0 0 0 2.843237,2.8272614 Z m 2.7993123,0 a 0.26608082,0.26608082 0 0 0 -0.027389,5.16e-4 0.26608082,0.26608082 0 0 0 -0.1912028,0.429431 c 0.212529,0.279207 0.328145,0.622176 0.328145,0.973068 0,0.350975 -0.1155221,0.691242 -0.328145,0.970483 a 0.26608082,0.26608082 0 1 0 0.4216805,0.322461 c 0.2831227,-0.371833 0.4376976,-0.825591 0.4376976,-1.292944 0,-0.467241 -0.1526302,-0.923225 -0.4356312,-1.295012 A 0.26608082,0.26608082 0 0 0 5.6425493,2.8272614 Z m -1.4102498,0.429947 c -0.5335061,0 -0.9704835,0.439561 -0.9704835,0.973068 0,0.533506 0.4369774,0.970483 0.9704835,0.970483 0.5335058,0 0.9725504,-0.436977 0.9725504,-0.970483 0,-0.533507 -0.4390446,-0.973068 -0.9725504,-0.973068 z"/>
</svg:g>
</svg>