<svg xmlns="http://www.w3.org/2000/svg" xmlns:xlink="http://www.w3.org/1999/xlink" xml:space="preserve" style="shape-rendering:geometricPrecision;text-rendering:geometricPrecision;image-rendering:optimizeQuality;" viewBox="0 0 9 9" x="0px" y="0px" fill-rule="evenodd" clip-rule="evenodd">
<defs>
<style type="text/css">
   
    .fil0 {fill:white}
   
  </style>
  </defs>
  <g>
  <path class="fil0" d="M4.0586 1.8239c0.536,0.2397 0.9149,0.8247 0.9146,1.5085 -0.0001,0.3917 -2.9118,0.3858 -2.9119,0 -0.0001,-0.6838 0.3787,-1.2688 0.9147,-1.5085 0.1396,0.1366 0.3306,0.1806 0.5413,0.1806 0.2107,0 0.4017,-0.044 0.5413,-0.1806z" fill='#FFF'/>
  <path class="fil0" d="M3.5173 0.2924c0.4274,0 0.7738,0.3465 0.7738,0.7739 0,0.4274 -0.3464,0.7738 -0.7738,0.7738 -0.4274,0 -0.7739,-0.3464 -0.7739,-0.7738 0,-0.4274 0.3465,-0.7739 0.7739,-0.7739z" fill='#FFF'/>
  <path class="fil0" d="M6.2101 1.3659c0.483,0.216 0.8244,0.7432 0.8242,1.3592 0,0.2359 -1.1718,0.3117 -1.949,0.2323 -0.0433,-0.2218 -0.1241,-0.4283 -0.2346,-0.6107 -0.0767,-0.1264 -0.1677,-0.2412 -0.2704,-0.3419 0.1461,-0.2876 0.3769,-0.5146 0.6546,-0.6389 0.1256,0.1231 0.2979,0.1628 0.4876,0.1628 0.1898,0 0.362,-0.0397 0.4876,-0.1628z" fill='#FFF'/>
  <path class="fil0" d="M5.7225 0c0.3851,0 0.6973,0.3122 0.6973,0.6973 0,0.385 -0.3122,0.6972 -0.6973,0.6972 -0.3851,0 -0.6972,-0.3122 -0.6972,-0.6972 0,-0.3851 0.3121,-0.6973 0.6972,-0.6973z" fill='#FFF'/>
  <path class="fil0" d="M1.7996 1.3659c0.2777,0.1243 0.5087,0.3513 0.6547,0.639 -0.1028,0.1006 -0.1937,0.2154 -0.2703,0.3418 -0.111,0.1831 -0.1921,0.3899 -0.2353,0.6118 -0.7774,0.0783 -1.9484,-0.0012 -1.9486,-0.2334 -0.0001,-0.616 0.3412,-1.1432 0.8242,-1.3592 0.1257,0.1231 0.2978,0.1628 0.4877,0.1628 0.1897,0 0.3619,-0.0397 0.4876,-0.1628z" fill='#FFF'/>
  <path class="fil0" d="M1.312 0c0.385,0 0.6972,0.3122 0.6972,0.6973 0,0.385 -0.3122,0.6972 -0.6972,0.6972 -0.3851,0 -0.6973,-0.3122 -0.6973,-0.6972 0,-0.3851 0.3122,-0.6973 0.6973,-0.6973z" fill='#FFF'/>
  </g>
  </svg>