<svg xmlns="http://www.w3.org/2000/svg" xmlns:xlink="http://www.w3.org/1999/xlink" version="1.0" x="10px" y="10px" viewBox="0 0 165 165" enable-background="new 0 0 100 100" xml:space="preserve" fill='#fff'>
<path d="M24.0251465,11.2045288c-3.5176392-3.5177002-9.2421875-3.5177002-12.7598877,0s-3.5169678,9.2414551,0.0007324,12.7591553  s9.2415161,3.5184937,12.7591553,0.0007935C27.5428467,20.4467773,27.5428467,14.722229,24.0251465,11.2045288z   M19.3480835,19.2874146c-0.9385986,0.9385986-2.4663696,0.9378662-3.4050293-0.0007935  c-0.9385986-0.9385986-0.9393311-2.4663696-0.0007324-3.4050293c0.9385986-0.9385986,2.4671631-0.9385986,3.4057617,0  C20.2867432,16.8202515,20.2867432,18.3488159,19.3480835,19.2874146z"/>
<path d="M35.7505493,16.5511475c-1.4142456-0.866394-3.2801514-0.418335-4.1465454,0.9959717l-11.3907471,18.592041  c-0.866394,1.4143066-0.4182129,3.2801514,0.9959717,4.1466064c1.4142456,0.8664551,3.2802124,0.4182739,4.1466064-0.9959717  L36.74646,20.6976318C37.612854,19.2835083,37.1646729,17.4174805,35.7505493,16.5511475z"/>
<path d="M43.3774414,24.1779785c-1.4143066-0.866394-3.2802124-0.4182739-4.1465454,0.9960327l-11.3907471,18.592041  c-0.866394,1.4143066-0.4182129,3.2800903,0.9959717,4.1466064c1.4141846,0.8664551,3.2802124,0.4182739,4.1466064-0.9960327  l11.390686-18.592041C45.2397461,26.9104004,44.7915649,25.0443726,43.3774414,24.1779785z"/>
<path d="M51.168396,31.9689331l-0.0001221-0.0001221c-1.4141846-0.866272-3.2800903-0.4182129-4.1466064,0.9959717  l-11.390625,18.5922241c-0.8664551,1.4141846-0.4182129,3.2800903,0.9960327,4.1465454  c1.4140625,0.866394,3.2800903,0.4182129,4.1465454-0.9959717l11.390625-18.5921631  C53.0306396,34.7012939,52.5824585,32.8353271,51.168396,31.9689331z"/>
<path d="M58.7952271,39.5957642c-1.4142456-0.866333-3.2801514-0.4182739-4.1466675,0.9959106l-11.390625,18.5921631  c-0.8665161,1.4142456-0.4182129,3.2800903,0.9959717,4.1466064c1.4141235,0.866394,3.2800903,0.4182129,4.1466064-0.9959717  l11.390625-18.5922241C60.6575317,42.328186,60.2093506,40.4621582,58.7952271,39.5957642z"/>
<path d="M89.8793945,77.0587769c-0.7532349-0.7532959-1.6204834-1.3114624-2.5328369-1.7421265l0.0024414-0.0025024  L61.9807739,49.9459229l-9.1850586,14.7617188l22.5799561,22.579895l0.0022583-0.0022583  c0.4307861,0.9122314,0.9890137,1.7793579,1.7423096,2.5326538c3.5177002,3.5177002,9.2414551,3.5184326,12.7591553,0.0007324  S93.3970947,80.5764771,89.8793945,77.0587769z M85.2023315,85.1416016  c-0.9385986,0.9385986-2.4664307,0.9378662-3.4050293-0.0007324c-0.9386597-0.9386597-0.9393921-2.4664307-0.0007935-3.4050293  c0.9385986-0.9386597,2.4672241-0.9386597,3.4058228,0C86.1409302,82.6744385,86.1409302,84.2030029,85.2023315,85.1416016z"/>
</svg>