<svg xmlns:dc="http://purl.org/dc/elements/1.1/" xmlns:cc="http://creativecommons.org/ns#" xmlns:rdf="http://www.w3.org/1999/02/22-rdf-syntax-ns#" xmlns:svg="http://www.w3.org/2000/svg" xmlns="http://www.w3.org/2000/svg" xmlns:sodipodi="http://sodipodi.sourceforge.net/DTD/sodipodi-0.dtd" xmlns:inkscape="http://www.inkscape.org/namespaces/inkscape" viewBox="0 0 80 80" version="1.1" x="0px" y="0px"><g transform="translate(0,-1004.3622)"><path d="m 32.999999,1004.8626 0,2 -20.00001,0 c -5.557266,0 -9.999987,4.4427 -9.999987,10 l 0,4 c 0,5.5573 4.442721,10 9.999987,10 l 20.00001,0 0,2 -20.00001,0 c -6.63069,0 -11.999999,-5.3693 -11.999999,-12 l 0,-4 c 0,-6.6307 5.369309,-12 11.999999,-12 z" style="color:#fff;font-style:normal;font-variant:normal;font-weight:normal;font-stretch:normal;font-size:medium;line-height:normal;font-family:sans-serif;text-indent:0;text-align:start;text-decoration:none;text-decoration-line:none;text-decoration-style:solid;text-decoration-color:#fff;letter-spacing:normal;word-spacing:normal;text-transform:none;direction:ltr;writing-mode:lr-tb;baseline-shift:baseline;text-anchor:start;white-space:normal;clip-rule:nonzero;display:inline;overflow:visible;visibility:visible;opacity:1;isolation:auto;mix-blend-mode:normal;color-interpolation:sRGB;color-interpolation-filters:linearRGB;solid-color:#fff;solid-opacity:1;fill:#fff;fill-opacity:1;fill-rule:nonzero;stroke:none;stroke-width:2;stroke-linecap:round;stroke-linejoin:round;stroke-miterlimit:4;stroke-dasharray:none;stroke-dashoffset:0;stroke-opacity:1;color-rendering:auto;image-rendering:auto;shape-rendering:auto;text-rendering:auto;enable-background:accumulate"/><path d="m 32.999999,1011.8626 0,2 -17.999998,0 c -2.233285,0 -3.999987,1.7667 -3.999987,4 l 0,2 c 0,2.2333 1.766702,4 3.999987,4 l 17.999998,0 0,2 -17.999998,0 c -3.306708,0 -6,-2.6933 -6,-6 l 0,-2 c 0,-3.3067 2.693292,-6 6,-6 z" style="color:#fff;font-style:normal;font-variant:normal;font-weight:normal;font-stretch:normal;font-size:medium;line-height:normal;font-family:sans-serif;text-indent:0;text-align:start;text-decoration:none;text-decoration-line:none;text-decoration-style:solid;text-decoration-color:#fff;letter-spacing:normal;word-spacing:normal;text-transform:none;direction:ltr;writing-mode:lr-tb;baseline-shift:baseline;text-anchor:start;white-space:normal;clip-rule:nonzero;display:inline;overflow:visible;visibility:visible;opacity:1;isolation:auto;mix-blend-mode:normal;color-interpolation:sRGB;color-interpolation-filters:linearRGB;solid-color:#fff;solid-opacity:1;fill:#fff;fill-opacity:1;fill-rule:nonzero;stroke:none;stroke-width:1.99999988;stroke-linecap:round;stroke-linejoin:round;stroke-miterlimit:4;stroke-dasharray:none;stroke-dashoffset:0;stroke-opacity:1;color-rendering:auto;image-rendering:auto;shape-rendering:auto;text-rendering:auto;enable-background:accumulate"/><path style="color:#fff;font-style:normal;font-variant:normal;font-weight:normal;font-stretch:normal;font-size:medium;line-height:normal;font-family:sans-serif;text-indent:0;text-align:start;text-decoration:none;text-decoration-line:none;text-decoration-style:solid;text-decoration-color:#fff;letter-spacing:normal;word-spacing:normal;text-transform:none;direction:ltr;block-progression:tb;writing-mode:lr-tb;baseline-shift:baseline;text-anchor:start;white-space:normal;clip-rule:nonzero;display:inline;overflow:visible;visibility:visible;opacity:1;isolation:auto;mix-blend-mode:normal;color-interpolation:sRGB;color-interpolation-filters:linearRGB;solid-color:#fff;solid-opacity:1;fill:#fff;fill-opacity:1;fill-rule:evenodd;stroke:none;stroke-width:1.99999976;stroke-linecap:round;stroke-linejoin:round;stroke-miterlimit:4;stroke-dasharray:none;stroke-dashoffset:0;stroke-opacity:1;color-rendering:auto;image-rendering:auto;shape-rendering:auto;text-rendering:auto;enable-background:accumulate" d="m 36.015593,1004.862 a 1.0000999,1.0000999 0 0 1 0.984375,1.0156 l 0,6.9707 a 1.0000999,1.0000999 0 1 1 -2,0 l 0,-6.9707 a 1.0000999,1.0000999 0 0 1 1.015625,-1.0156 z"/><path style="color:#fff;font-style:normal;font-variant:normal;font-weight:normal;font-stretch:normal;font-size:medium;line-height:normal;font-family:sans-serif;text-indent:0;text-align:start;text-decoration:none;text-decoration-line:none;text-decoration-style:solid;text-decoration-color:#fff;letter-spacing:normal;word-spacing:normal;text-transform:none;direction:ltr;block-progression:tb;writing-mode:lr-tb;baseline-shift:baseline;text-anchor:start;white-space:normal;clip-rule:nonzero;display:inline;overflow:visible;visibility:visible;opacity:1;isolation:auto;mix-blend-mode:normal;color-interpolation:sRGB;color-interpolation-filters:linearRGB;solid-color:#fff;solid-opacity:1;fill:#fff;fill-opacity:1;fill-rule:evenodd;stroke:none;stroke-width:1.99999976;stroke-linecap:round;stroke-linejoin:round;stroke-miterlimit:4;stroke-dasharray:1.99999978, 5.99999935;stroke-dashoffset:0;stroke-opacity:1;color-rendering:auto;image-rendering:auto;shape-rendering:auto;text-rendering:auto;enable-background:accumulate" d="m 41.999968,1008.2643 0.158203,0.8809 -0.613281,0.6562 -0.345703,0.061 -2,0 -0.802735,-0.4004 -0.15625,-0.8828 0.611329,-0.6543 0.347656,-0.062 2,0 z m -8,0 0.158203,0.8809 -0.613281,0.6562 -0.345703,0.061 -2,0 -0.802735,-0.4004 -0.15625,-0.8828 0.611329,-0.6543 0.347656,-0.062 2,0 z m -8,0 0.158203,0.8809 -0.613281,0.6562 -0.345703,0.061 -2,0 -0.802735,-0.4004 -0.15625,-0.8828 0.611329,-0.6543 0.347656,-0.062 2,0 z m -8,0 0.158203,0.8809 -0.613281,0.6562 -0.345703,0.061 -2,0 -0.802735,-0.4004 -0.15625,-0.8828 0.611329,-0.6543 0.347656,-0.062 2,0 z m -7.421875,2.045 -0.0918,0.8906 -0.238281,0.2597 -0.21875,0.168 -0.455078,0.4297 -0.425781,0.4824 -0.103516,0.1387 -0.800781,0.4043 -0.800781,-0.3984 -0.16211,-0.8829 0.158203,-0.3144 0.126953,-0.1719 0.05273,-0.064 0.484375,-0.5489 0.0625,-0.066 0.529297,-0.5 0.08203,-0.068 0.259766,-0.1973 0.880859,-0.166 z m -3.535156,7.0371 0.02734,0.3515 -0.04687,0.4727 -0.01953,0.6914 0.02148,0.7031 -0.375,0.8125 -0.876953,0.1875 -0.673828,-0.5898 -0.07227,-0.3457 -0.02539,-0.7344 0,-0.065 0.02539,-0.7636 0.0039,-0.064 0.04883,-0.5 0.478516,-0.7578 0.894531,-0.07 z m 1.460937,7.0996 0.19336,0.2148 0.0059,0 0.03711,0.051 0.38086,0.5078 0.416016,0.4531 0.33789,0.2969 0.339844,0.8301 -0.460938,0.7676 -0.890625,0.09 -0.302734,-0.1816 -0.382813,-0.334 -0.08008,-0.078 -0.492187,-0.5391 -0.06445,-0.076 -0.441406,-0.5918 -0.04883,-0.072 -0.01367,-0.02 -0.07813,-0.8925 0.666016,-0.5997 z m 8.371094,2.8437 0.796875,0.4102 0.148438,0.8847 -0.619141,0.6465 -0.347656,0.059 -2,-0.022 -0.796875,-0.4101 -0.148438,-0.8828 0.619141,-0.6485 0.347656,-0.059 z m 16.78711,0.3809 0.162109,0.8808 -0.609375,0.6563 -0.345703,0.064 -2,0.01 -0.802735,-0.3984 -0.162109,-0.8809 0.609375,-0.6582 0.345703,-0.062 2,-0.01 z m -8,0.037 0.162109,0.8809 -0.609375,0.6562 -0.345703,0.064 -0.478516,0 -0.0039,0 -1.521485,0 -0.800781,-0.4004 -0.160156,-0.8809 0.611328,-0.6562 0.347656,-0.062 1.517579,0 0.0039,0 0.474609,0 z m 13.429687,1.3144 0.376953,0.3008 0.07031,0.062 1.070312,1.0293 0.07422,0.08 0.01953,0.023 0.205078,0.8731 -0.576172,0.6855 -0.894531,-0.051 -0.208984,-0.1758 -0.0059,0.01 -1.023437,-0.9863 -0.355469,-0.2852 -0.375,-0.8125 0.425781,-0.789 0.886719,-0.1289 z m 4.091797,7.0547 0.121094,0.3301 0.0918,0.5234 0.01172,0.1055 0.08789,1.2656 0,0.1211 -0.0098,0.1993 -0.443359,0.7793 -0.888672,0.1113 -0.621094,-0.6465 -0.04492,-0.3496 0.0078,-0.1465 -0.07813,-1.1367 -0.08398,-0.4785 0.25586,-0.8594 0.841797,-0.3086 z m -1.783203,7.4551 0.220703,0.8692 -0.132813,0.3242 -0.0039,0.01 -0.03906,0.057 -0.439453,0.5918 -0.04492,0.057 -0.476563,0.5586 -0.05078,0.053 -0.367188,0.3691 -0.849609,0.2852 -0.736328,-0.5098 -0.0332,-0.8945 0.201172,-0.291 0.339843,-0.3399 0.435547,-0.5097 0.375,-0.5039 0.0039,-0.01 0.03516,-0.049 0.02148,0.016 0.712891,-0.4258 z m -6.605469,3.7324 0.158203,0.8809 -0.611328,0.6562 -0.347656,0.061 -2,0 -0.800781,-0.4004 -0.158204,-0.8828 0.611328,-0.6543 0.347657,-0.062 2,0 z m -8,0 0.158203,0.8809 -0.611328,0.6562 -0.347656,0.061 -2,0 -0.800781,-0.4004 -0.158204,-0.8828 0.611328,-0.6543 0.347657,-0.062 2,0 z m -8,0 0.158203,0.8809 -0.611328,0.6562 -0.347656,0.061 -2,0 -0.800781,-0.4004 -0.158204,-0.8828 0.611328,-0.6543 0.347657,-0.062 2,0 z m -8,0 0.158203,0.8809 -0.611328,0.6562 -0.347656,0.061 -1.605469,0 -0.800781,-0.4004 -0.158203,-0.8828 0.611328,-0.6543 0.347656,-0.062 1.605469,0 z"/><path style="color:#fff;font-style:normal;font-variant:normal;font-weight:normal;font-stretch:normal;font-size:medium;line-height:normal;font-family:sans-serif;text-indent:0;text-align:start;text-decoration:none;text-decoration-line:none;text-decoration-style:solid;text-decoration-color:#fff;letter-spacing:normal;word-spacing:normal;text-transform:none;direction:ltr;block-progression:tb;writing-mode:lr-tb;baseline-shift:baseline;text-anchor:start;white-space:normal;clip-rule:nonzero;display:inline;overflow:visible;visibility:visible;opacity:1;isolation:auto;mix-blend-mode:normal;color-interpolation:sRGB;color-interpolation-filters:linearRGB;solid-color:#fff;solid-opacity:1;fill:#fff;fill-opacity:1;fill-rule:evenodd;stroke:none;stroke-width:1.99999976;stroke-linecap:round;stroke-linejoin:round;stroke-miterlimit:4;stroke-dasharray:none;stroke-dashoffset:0;stroke-opacity:1;color-rendering:auto;image-rendering:auto;shape-rendering:auto;text-rendering:auto;enable-background:accumulate" d="m 42.466765,1007.86 a 1.0000999,1.0000999 0 1 1 0,2 l -5.972656,0 a 1.0000999,1.0000999 0 1 1 0,-2 l 5.972656,0 z"/><path style="color:#fff;font-style:normal;font-variant:normal;font-weight:normal;font-stretch:normal;font-size:medium;line-height:normal;font-family:sans-serif;text-indent:0;text-align:start;text-decoration:none;text-decoration-line:none;text-decoration-style:solid;text-decoration-color:#fff;letter-spacing:normal;word-spacing:normal;text-transform:none;direction:ltr;block-progression:tb;writing-mode:lr-tb;baseline-shift:baseline;text-anchor:start;white-space:normal;clip-rule:nonzero;display:inline;overflow:visible;visibility:visible;opacity:1;isolation:auto;mix-blend-mode:normal;color-interpolation:sRGB;color-interpolation-filters:linearRGB;solid-color:#fff;solid-opacity:1;fill:#fff;fill-opacity:1;fill-rule:evenodd;stroke:none;stroke-width:1.99999976;stroke-linecap:round;stroke-linejoin:round;stroke-miterlimit:4;stroke-dasharray:none;stroke-dashoffset:0;stroke-opacity:1;color-rendering:auto;image-rendering:auto;shape-rendering:auto;text-rendering:auto;enable-background:accumulate" d="m 39.515593,1004.862 a 1.0000999,1.0000999 0 0 1 0.984375,1.0156 l 0,6.9707 a 1.0000999,1.0000999 0 1 1 -2,0 l 0,-6.9707 a 1.0000999,1.0000999 0 0 1 1.015625,-1.0156 z"/><path style="color:#fff;font-style:normal;font-variant:normal;font-weight:normal;font-stretch:normal;font-size:medium;line-height:normal;font-family:sans-serif;text-indent:0;text-align:start;text-decoration:none;text-decoration-line:none;text-decoration-style:solid;text-decoration-color:#fff;letter-spacing:normal;word-spacing:normal;text-transform:none;direction:ltr;writing-mode:lr-tb;baseline-shift:baseline;text-anchor:start;white-space:normal;clip-rule:nonzero;display:inline;overflow:visible;visibility:visible;opacity:1;isolation:auto;mix-blend-mode:normal;color-interpolation:sRGB;color-interpolation-filters:linearRGB;solid-color:#fff;solid-opacity:1;fill:#fff;fill-opacity:1;fill-rule:nonzero;stroke:none;stroke-width:2;stroke-linecap:round;stroke-linejoin:round;stroke-miterlimit:4;stroke-dasharray:none;stroke-dashoffset:0;stroke-opacity:1;color-rendering:auto;image-rendering:auto;shape-rendering:auto;text-rendering:auto;enable-background:accumulate" d="m 35.000012,1023.8626 c 6.630689,0 11.999998,5.3693 11.999998,12 l 0,4 c 0,6.6307 -5.369309,12 -11.999998,12 l -20.000011,0 0,-2 20.000011,0 c 5.557265,0 9.999986,-4.4427 9.999986,-10 l 0,-4 c 0,-5.5573 -4.442721,-10 -9.999986,-10 l -2.000013,0 0,-2 z"/><path style="color:#fff;font-style:normal;font-variant:normal;font-weight:normal;font-stretch:normal;font-size:medium;line-height:normal;font-family:sans-serif;text-indent:0;text-align:start;text-decoration:none;text-decoration-line:none;text-decoration-style:solid;text-decoration-color:#fff;letter-spacing:normal;word-spacing:normal;text-transform:none;direction:ltr;writing-mode:lr-tb;baseline-shift:baseline;text-anchor:start;white-space:normal;clip-rule:nonzero;display:inline;overflow:visible;visibility:visible;opacity:1;isolation:auto;mix-blend-mode:normal;color-interpolation:sRGB;color-interpolation-filters:linearRGB;solid-color:#fff;solid-opacity:1;fill:#fff;fill-opacity:1;fill-rule:nonzero;stroke:none;stroke-width:1.99999988;stroke-linecap:round;stroke-linejoin:round;stroke-miterlimit:4;stroke-dasharray:none;stroke-dashoffset:0;stroke-opacity:1;color-rendering:auto;image-rendering:auto;shape-rendering:auto;text-rendering:auto;enable-background:accumulate" d="m 32.999999,1030.8626 c 3.306709,0 6,2.6933 6,6 l 0,2 c 0,3.3067 -2.693291,6 -6,6 l -17.999998,0 0,-2 17.999998,0 c 2.233285,0 3.999987,-1.7667 3.999987,-4 l 0,-2 c 0,-2.2333 -1.766702,-4 -3.999987,-4 z"/><path style="color:#fff;font-style:normal;font-variant:normal;font-weight:normal;font-stretch:normal;font-size:medium;line-height:normal;font-family:sans-serif;text-indent:0;text-align:start;text-decoration:none;text-decoration-line:none;text-decoration-style:solid;text-decoration-color:#fff;letter-spacing:normal;word-spacing:normal;text-transform:none;direction:ltr;block-progression:tb;writing-mode:lr-tb;baseline-shift:baseline;text-anchor:start;white-space:normal;clip-rule:nonzero;display:inline;overflow:visible;visibility:visible;opacity:1;isolation:auto;mix-blend-mode:normal;color-interpolation:sRGB;color-interpolation-filters:linearRGB;solid-color:#fff;solid-opacity:1;fill:#fff;fill-opacity:1;fill-rule:evenodd;stroke:none;stroke-width:1.99999976;stroke-linecap:round;stroke-linejoin:round;stroke-miterlimit:4;stroke-dasharray:none;stroke-dashoffset:0;stroke-opacity:1;color-rendering:auto;image-rendering:auto;shape-rendering:auto;text-rendering:auto;enable-background:accumulate" d="m 42.986296,1004.862 a 1.0000999,1.0000999 0 0 1 1,0.998 l 0.01367,7 a 1.0000999,1.0000999 0 0 1 -1,1.002 l -10.984375,0 a 1.0000999,1.0000999 0 1 1 0,-2 l 9.982422,0 -0.0098,-5 -9.958984,0 a 1.0000999,1.0000999 0 1 1 0,-2 l 10.957031,0 z"/><path style="color:#fff;font-style:normal;font-variant:normal;font-weight:normal;font-stretch:normal;font-size:medium;line-height:normal;font-family:sans-serif;text-indent:0;text-align:start;text-decoration:none;text-decoration-line:none;text-decoration-style:solid;text-decoration-color:#fff;letter-spacing:normal;word-spacing:normal;text-transform:none;direction:ltr;block-progression:tb;writing-mode:lr-tb;baseline-shift:baseline;text-anchor:start;white-space:normal;clip-rule:nonzero;display:inline;overflow:visible;visibility:visible;opacity:1;isolation:auto;mix-blend-mode:normal;color-interpolation:sRGB;color-interpolation-filters:linearRGB;solid-color:#fff;solid-opacity:1;fill:#fff;fill-opacity:1;fill-rule:evenodd;stroke:none;stroke-width:1.99999976;stroke-linecap:round;stroke-linejoin:round;stroke-miterlimit:4;stroke-dasharray:none;stroke-dashoffset:0;stroke-opacity:1;color-rendering:auto;image-rendering:auto;shape-rendering:auto;text-rendering:auto;enable-background:accumulate" d="m 15.986296,1042.862 a 1.0000999,1.0000999 0 1 1 0,2 l -10.972656,0 a 1.0000999,1.0000999 0 1 1 0,-2 l 10.972656,0 z"/><path style="color:#fff;font-style:normal;font-variant:normal;font-weight:normal;font-stretch:normal;font-size:medium;line-height:normal;font-family:sans-serif;text-indent:0;text-align:start;text-decoration:none;text-decoration-line:none;text-decoration-style:solid;text-decoration-color:#fff;letter-spacing:normal;word-spacing:normal;text-transform:none;direction:ltr;block-progression:tb;writing-mode:lr-tb;baseline-shift:baseline;text-anchor:start;white-space:normal;clip-rule:nonzero;display:inline;overflow:visible;visibility:visible;opacity:1;isolation:auto;mix-blend-mode:normal;color-interpolation:sRGB;color-interpolation-filters:linearRGB;solid-color:#fff;solid-opacity:1;fill:#fff;fill-opacity:1;fill-rule:evenodd;stroke:none;stroke-width:1.99999976;stroke-linecap:round;stroke-linejoin:round;stroke-miterlimit:4;stroke-dasharray:none;stroke-dashoffset:0;stroke-opacity:1;color-rendering:auto;image-rendering:auto;shape-rendering:auto;text-rendering:auto;enable-background:accumulate" d="m 15.986296,1049.862 a 1.0000999,1.0000999 0 1 1 0,2 l -10.972656,0 a 1.0000999,1.0000999 0 1 1 0,-2 l 10.972656,0 z"/></g></svg>